<?xml version="1.0" encoding="UTF-8"?>
<!DOCTYPE svg PUBLIC "-//W3C//DTD SVG 1.1//EN" "http://www.w3.org/Graphics/SVG/1.1/DTD/svg11.dtd">
<svg xmlns="http://www.w3.org/2000/svg" version="1.1" width="282px" height="267px" style="shape-rendering:geometricPrecision; text-rendering:geometricPrecision; image-rendering:optimizeQuality; fill-rule:evenodd; clip-rule:evenodd" xmlns:xlink="http://www.w3.org/1999/xlink">
<g><path style="opacity:1" fill="#fdfdfd" d="M -0.5,-0.5 C 93.5,-0.5 187.5,-0.5 281.5,-0.5C 281.5,88.5 281.5,177.5 281.5,266.5C 187.5,266.5 93.5,266.5 -0.5,266.5C -0.5,177.5 -0.5,88.5 -0.5,-0.5 Z"/></g>
<g><path style="opacity:1" fill="#bcbcbc" d="M 93.5,8.5 C 93.4013,11.2372 93.7347,13.9039 94.5,16.5C 92.9735,15.5081 92.3068,14.0081 92.5,12C 92.5143,10.6153 92.8476,9.4486 93.5,8.5 Z"/></g>
<g><path style="opacity:1" fill="#3e494e" d="M 96.5,6.5 C 104.676,3.83578 108.176,6.83578 107,15.5C 105.333,16.7332 103.833,18.0665 102.5,19.5C 102.167,19.5 101.833,19.5 101.5,19.5C 101.586,18.5041 101.252,17.6708 100.5,17C 101.357,16.3109 102.023,15.4776 102.5,14.5C 101.185,12.6841 99.6851,11.0175 98,9.5C 97.3828,8.55085 97.5494,7.71752 98.5,7C 97.9056,6.53566 97.2389,6.36899 96.5,6.5 Z"/></g>
<g><path style="opacity:1" fill="#23363d" d="M 96.5,6.5 C 97.2389,6.36899 97.9056,6.53566 98.5,7C 97.5494,7.71752 97.3828,8.55085 98,9.5C 99.6851,11.0175 101.185,12.6841 102.5,14.5C 102.023,15.4776 101.357,16.3109 100.5,17C 101.252,17.6708 101.586,18.5041 101.5,19.5C 101.194,22.3854 101.527,25.0521 102.5,27.5C 100.706,28.8565 98.7065,30.0232 96.5,31C 97.1667,31.3333 97.8333,31.6667 98.5,32C 97.2068,32.49 95.8734,32.6567 94.5,32.5C 94.5,31.1667 94.5,29.8333 94.5,28.5C 91.1667,28.5 87.8333,28.5 84.5,28.5C 87.8333,27.8333 91.1667,27.1667 94.5,26.5C 95.4435,23.0012 95.4435,19.6678 94.5,16.5C 93.7347,13.9039 93.4013,11.2372 93.5,8.5C 94.2223,7.44886 95.2223,6.78219 96.5,6.5 Z"/></g>
<g><path style="opacity:1" fill="#bbc2c5" d="M 101.5,19.5 C 101.833,19.5 102.167,19.5 102.5,19.5C 102.5,21.8333 102.5,24.1667 102.5,26.5C 106.16,26.1588 109.493,26.8255 112.5,28.5C 109.193,27.9492 105.86,27.6159 102.5,27.5C 101.527,25.0521 101.194,22.3854 101.5,19.5 Z"/></g>
<g><path style="opacity:1" fill="#9a9086" d="M 84.5,28.5 C 87.8333,28.5 91.1667,28.5 94.5,28.5C 94.5,29.8333 94.5,31.1667 94.5,32.5C 93.596,31.791 93.2627,30.791 93.5,29.5C 88.3844,29.431 83.3844,30.0976 78.5,31.5C 80.5,30.5 82.5,29.5 84.5,28.5 Z"/></g>
<g><path style="opacity:1" fill="#eadec6" d="M 94.5,32.5 C 96.2884,33.6225 98.2884,33.7891 100.5,33C 101.337,31.9887 101.67,30.8221 101.5,29.5C 115.851,30.5075 127.517,36.5075 136.5,47.5C 136.586,48.4959 136.252,49.3292 135.5,50C 137.97,53.0346 139.304,56.5346 139.5,60.5C 140.5,60.5 141.5,60.5 142.5,60.5C 142.5,62.1667 142.5,63.8333 142.5,65.5C 139.05,66.2436 137.384,64.9103 137.5,61.5C 135.453,61.4889 133.453,61.1556 131.5,60.5C 124.276,61.818 117.276,62.818 110.5,63.5C 100.908,63.0755 91.4077,63.7421 82,65.5C 79.1443,65.1289 76.3109,64.6289 73.5,64C 70.0797,60.1794 66.2464,59.6794 62,62.5C 60.2341,61.7665 58.4008,61.4332 56.5,61.5C 55.4538,59.5336 54.4538,57.5336 53.5,55.5C 56.2973,52.8012 57.9639,49.4679 58.5,45.5C 59.6888,44.5713 61.0222,44.238 62.5,44.5C 62.3433,43.1266 62.51,41.7932 63,40.5C 64.9923,39.6719 66.4923,38.3386 67.5,36.5C 70.4809,33.5124 74.1476,31.8457 78.5,31.5C 83.3844,30.0976 88.3844,29.431 93.5,29.5C 93.2627,30.791 93.596,31.791 94.5,32.5 Z"/></g>
<g><path style="opacity:1" fill="#4d4f47" d="M 102.5,27.5 C 105.86,27.6159 109.193,27.9492 112.5,28.5C 124.608,32.8019 134.441,40.1352 142,50.5C 143.286,53.4055 144.286,56.4055 145,59.5C 146.518,60.1634 147.685,61.1634 148.5,62.5C 147.195,69.2461 146.195,75.9128 145.5,82.5C 146.887,71.5242 145.053,61.1908 140,51.5C 139.051,49.9069 137.885,48.5736 136.5,47.5C 127.517,36.5075 115.851,30.5075 101.5,29.5C 101.67,30.8221 101.337,31.9887 100.5,33C 98.2884,33.7891 96.2884,33.6225 94.5,32.5C 95.8734,32.6567 97.2068,32.49 98.5,32C 97.8333,31.6667 97.1667,31.3333 96.5,31C 98.7065,30.0232 100.706,28.8565 102.5,27.5 Z"/></g>
<g><path style="opacity:1" fill="#585655" d="M 94.5,26.5 C 91.1667,27.1667 87.8333,27.8333 84.5,28.5C 82.5,29.5 80.5,30.5 78.5,31.5C 74.1476,31.8457 70.4809,33.5124 67.5,36.5C 57.8884,41.4127 51.8884,49.0794 49.5,59.5C 48.7321,58.7375 48.2321,57.7375 48,56.5C 47.7679,57.7375 47.2679,58.7375 46.5,59.5C 47.2202,54.7229 49.0535,50.3896 52,46.5C 60.4242,36.5431 70.9242,30.0431 83.5,27C 87.1516,26.5014 90.8183,26.3347 94.5,26.5 Z"/></g>
<g><path style="opacity:1" fill="#c4beb2" d="M 67.5,36.5 C 66.4923,38.3386 64.9923,39.6719 63,40.5C 62.51,41.7932 62.3433,43.1266 62.5,44.5C 61.0222,44.238 59.6888,44.5713 58.5,45.5C 57.9639,49.4679 56.2973,52.8012 53.5,55.5C 54.4538,57.5336 55.4538,59.5336 56.5,61.5C 54.4418,60.0669 52.1085,59.4003 49.5,59.5C 51.8884,49.0794 57.8884,41.4127 67.5,36.5 Z"/></g>
<g><path style="opacity:1" fill="#dbd3bf" d="M 110.5,63.5 C 102.439,64.012 94.4388,65.012 86.5,66.5C 81.5038,68.1629 78.1705,71.4962 76.5,76.5C 74.783,79.8448 74.1164,83.5115 74.5,87.5C 74.3048,91.5474 74.6381,95.5474 75.5,99.5C 76.806,101.473 78.4727,103.139 80.5,104.5C 86.5396,106.041 92.7062,106.707 99,106.5C 104.215,106.45 109.381,106.116 114.5,105.5C 116.833,105.5 119.167,105.5 121.5,105.5C 124.244,105.752 126.744,105.085 129,103.5C 129.5,103.833 130,104.167 130.5,104.5C 129.147,105.524 128.48,106.857 128.5,108.5C 128.5,109.167 128.167,109.5 127.5,109.5C 125.473,109.338 123.473,109.505 121.5,110C 118.029,112.072 114.362,113.572 110.5,114.5C 110.5,113.5 110.5,112.5 110.5,111.5C 99.4301,111.898 88.7634,110.064 78.5,106C 76.5214,102.96 75.188,103.46 74.5,107.5C 72.1949,106.011 69.8616,104.511 67.5,103C 66.1772,102.184 65.5106,101.017 65.5,99.5C 67.5452,101.984 70.2118,102.984 73.5,102.5C 72.9254,97.868 72.592,93.2013 72.5,88.5C 72.5417,84.4045 73.2084,80.5712 74.5,77C 73.552,76.5172 72.552,76.3505 71.5,76.5C 71.528,74.4176 70.8613,72.5843 69.5,71C 70.6721,70.5814 71.6721,69.9147 72.5,69C 69.692,68.0068 66.8587,67.1734 64,66.5C 62.8818,71.841 62.0485,77.1743 61.5,82.5C 61.5,79.5 61.5,76.5 61.5,73.5C 61.3367,68.8158 59.67,64.8158 56.5,61.5C 58.4008,61.4332 60.2341,61.7665 62,62.5C 66.2464,59.6794 70.0797,60.1794 73.5,64C 76.3109,64.6289 79.1443,65.1289 82,65.5C 91.4077,63.7421 100.908,63.0755 110.5,63.5 Z"/></g>
<g><path style="opacity:1" fill="#2f4348" d="M 49.5,59.5 C 52.1085,59.4003 54.4418,60.0669 56.5,61.5C 59.67,64.8158 61.3367,68.8158 61.5,73.5C 60.9072,76.5 60.0739,79.5 59,82.5C 58.4236,79.8758 57.0902,79.2092 55,80.5C 55.6043,69.62 50.7709,64.2866 40.5,64.5C 41.8908,62.1097 43.8908,60.4431 46.5,59.5C 47.2679,58.7375 47.7679,57.7375 48,56.5C 48.2321,57.7375 48.7321,58.7375 49.5,59.5 Z"/></g>
<g><path style="opacity:1" fill="#928f84" d="M 110.5,63.5 C 119.017,63.1739 127.35,63.5073 135.5,64.5C 131.5,64.5 127.5,64.5 123.5,64.5C 119.958,64.1872 116.625,64.5206 113.5,65.5C 104.482,65.4484 95.4818,65.7817 86.5,66.5C 94.4388,65.012 102.439,64.012 110.5,63.5 Z"/></g>
<g><path style="opacity:1" fill="#2d3434" d="M 113.5,65.5 C 116.187,65.3359 118.854,65.5026 121.5,66C 109.514,67.0948 97.5142,68.0948 85.5,69C 84.5842,69.2784 83.9175,69.7784 83.5,70.5C 82.5655,71.5676 82.2322,72.901 82.5,74.5C 80.2821,74.6138 78.2821,75.2804 76.5,76.5C 78.1705,71.4962 81.5038,68.1629 86.5,66.5C 95.4818,65.7817 104.482,65.4484 113.5,65.5 Z"/></g>
<g><path style="opacity:1" fill="#425359" d="M 113.5,65.5 C 116.625,64.5206 119.958,64.1872 123.5,64.5C 126.977,65.3227 130.644,65.8227 134.5,66C 135.056,66.3826 135.389,66.8826 135.5,67.5C 118.126,67.9534 100.793,68.9534 83.5,70.5C 83.9175,69.7784 84.5842,69.2784 85.5,69C 97.5142,68.0948 109.514,67.0948 121.5,66C 118.854,65.5026 116.187,65.3359 113.5,65.5 Z"/></g>
<g><path style="opacity:1" fill="#1d4047" d="M 135.5,88.5 C 135.5,89.8333 135.5,91.1667 135.5,92.5C 134.167,92.5 132.833,92.5 131.5,92.5C 131.737,91.209 131.404,90.209 130.5,89.5C 130.665,86.4816 130.498,83.4816 130,80.5C 127.79,79.2512 125.624,79.4178 123.5,81C 122.533,85.4014 122.2,89.9014 122.5,94.5C 119.409,97.0633 115.909,99.0633 112,100.5C 106.213,100.041 100.38,99.7075 94.5,99.5C 95.3733,97.1137 96.8733,95.1137 99,93.5C 99.4983,90.1832 99.665,86.8499 99.5,83.5C 100.65,84.8502 101.317,84.6836 101.5,83C 101.318,78.4567 98.9844,75.9567 94.5,75.5C 96.7662,74.6858 99.0995,74.1858 101.5,74C 109.827,73.5003 118.16,73.3336 126.5,73.5C 126.275,75.7159 127.108,77.3826 129,78.5C 130.584,77.1387 132.418,76.472 134.5,76.5C 134.646,80.5191 134.979,84.5191 135.5,88.5 Z"/></g>
<g><path style="opacity:1" fill="#d5cfbe" d="M 136.5,47.5 C 137.885,48.5736 139.051,49.9069 140,51.5C 145.053,61.1908 146.887,71.5242 145.5,82.5C 144.542,84.3024 143.875,86.3024 143.5,88.5C 142.655,89.6715 141.989,91.0048 141.5,92.5C 140.527,90.0521 140.194,87.3854 140.5,84.5C 140.666,79.1563 140.499,73.8229 140,68.5C 138.629,66.9586 137.129,65.6253 135.5,64.5C 127.35,63.5073 119.017,63.1739 110.5,63.5C 117.276,62.818 124.276,61.818 131.5,60.5C 133.453,61.1556 135.453,61.4889 137.5,61.5C 137.384,64.9103 139.05,66.2436 142.5,65.5C 142.5,63.8333 142.5,62.1667 142.5,60.5C 141.5,60.5 140.5,60.5 139.5,60.5C 139.304,56.5346 137.97,53.0346 135.5,50C 136.252,49.3292 136.586,48.4959 136.5,47.5 Z"/></g>
<g><path style="opacity:1" fill="#e8ddc2" d="M 65.5,99.5 C 63.4959,98.3272 61.9959,96.6605 61,94.5C 60.9379,90.8517 61.1046,87.185 61.5,83.5C 61.5,83.1667 61.5,82.8333 61.5,82.5C 62.0485,77.1743 62.8818,71.841 64,66.5C 66.8587,67.1734 69.692,68.0068 72.5,69C 71.6721,69.9147 70.6721,70.5814 69.5,71C 70.8613,72.5843 71.528,74.4176 71.5,76.5C 72.552,76.3505 73.552,76.5172 74.5,77C 73.2084,80.5712 72.5417,84.4045 72.5,88.5C 72.592,93.2013 72.9254,97.868 73.5,102.5C 70.2118,102.984 67.5452,101.984 65.5,99.5 Z"/></g>
<g><path style="opacity:1" fill="#2c3a42" d="M 148.5,62.5 C 152.511,67.5729 153.511,73.2396 151.5,79.5C 150.542,81.3024 149.875,83.3024 149.5,85.5C 147.433,87.2274 145.767,89.2274 144.5,91.5C 143.596,90.791 143.263,89.791 143.5,88.5C 143.875,86.3024 144.542,84.3024 145.5,82.5C 146.195,75.9128 147.195,69.2461 148.5,62.5 Z"/></g>
<g><path style="opacity:1" fill="#56645c" d="M 76.5,76.5 C 76.5,77.8333 76.5,79.1667 76.5,80.5C 75.8333,82.8333 75.1667,85.1667 74.5,87.5C 74.1164,83.5115 74.783,79.8448 76.5,76.5 Z"/></g>
<g><path style="opacity:1" fill="#a9b0b3" d="M 36.5,73.5 C 36.6458,77.5191 36.9791,81.5191 37.5,85.5C 36.8826,85.3893 36.3826,85.056 36,84.5C 35.1901,80.6425 35.3567,76.9758 36.5,73.5 Z"/></g>
<g><path style="opacity:1" fill="#1b313a" d="M 40.5,64.5 C 50.7709,64.2866 55.6043,69.62 55,80.5C 57.0902,79.2092 58.4236,79.8758 59,82.5C 60.0739,79.5 60.9072,76.5 61.5,73.5C 61.5,76.5 61.5,79.5 61.5,82.5C 61.5,82.8333 61.5,83.1667 61.5,83.5C 60.2245,86.9697 58.5578,90.303 56.5,93.5C 53.8808,93.9255 51.5475,94.9255 49.5,96.5C 47.3736,95.9518 45.3736,95.2852 43.5,94.5C 42.1667,92.5 40.5,90.8333 38.5,89.5C 38.7678,87.901 38.4345,86.5676 37.5,85.5C 36.9791,81.5191 36.6458,77.5191 36.5,73.5C 37.083,70.0534 38.4163,67.0534 40.5,64.5 Z"/></g>
<g><path style="opacity:1" fill="#213f4a" d="M 135.5,67.5 C 135.614,71.404 136.614,75.0706 138.5,78.5C 137.991,82.1026 136.991,85.4359 135.5,88.5C 134.979,84.5191 134.646,80.5191 134.5,76.5C 132.418,76.472 130.584,77.1387 129,78.5C 127.108,77.3826 126.275,75.7159 126.5,73.5C 118.16,73.3336 109.827,73.5003 101.5,74C 99.0995,74.1858 96.7662,74.6858 94.5,75.5C 98.9844,75.9567 101.318,78.4567 101.5,83C 101.317,84.6836 100.65,84.8502 99.5,83.5C 99.0377,82.1201 98.0377,81.4534 96.5,81.5C 94.1585,81.6618 92.3252,82.6618 91,84.5C 90.3333,88.8333 90.3333,93.1667 91,97.5C 91.7096,98.9733 92.8762,99.6399 94.5,99.5C 100.38,99.7075 106.213,100.041 112,100.5C 115.909,99.0633 119.409,97.0633 122.5,94.5C 123.97,95.9779 125.637,97.3112 127.5,98.5C 126.395,99.8924 125.061,101.059 123.5,102C 109.159,105.234 94.8255,105.234 80.5,102C 79.6959,100.229 78.5292,98.7287 77,97.5C 76.5006,91.8431 76.3339,86.1764 76.5,80.5C 76.5,79.1667 76.5,77.8333 76.5,76.5C 78.2821,75.2804 80.2821,74.6138 82.5,74.5C 82.2322,72.901 82.5655,71.5676 83.5,70.5C 100.793,68.9534 118.126,67.9534 135.5,67.5 Z"/></g>
<g><path style="opacity:1" fill="#0b1c27" d="M 130.5,89.5 C 130.5,90.8333 130.5,92.1667 130.5,93.5C 128.4,93.4772 126.567,94.1439 125,95.5C 124.098,95.2568 123.265,94.9234 122.5,94.5C 122.2,89.9014 122.533,85.4014 123.5,81C 125.624,79.4178 127.79,79.2512 130,80.5C 130.498,83.4816 130.665,86.4816 130.5,89.5 Z"/></g>
<g><path style="opacity:1" fill="#b7bdc5" d="M 151.5,79.5 C 151.975,82.0821 151.308,84.0821 149.5,85.5C 149.875,83.3024 150.542,81.3024 151.5,79.5 Z"/></g>
<g><path style="opacity:1" fill="#aeb2b4" d="M 38.5,89.5 C 40.5,90.8333 42.1667,92.5 43.5,94.5C 40.8333,93.8333 39.1667,92.1667 38.5,89.5 Z"/></g>
<g><path style="opacity:1" fill="#263435" d="M 123.5,64.5 C 127.5,64.5 131.5,64.5 135.5,64.5C 137.129,65.6253 138.629,66.9586 140,68.5C 140.499,73.8229 140.666,79.1563 140.5,84.5C 139.503,90.9883 136.503,96.4883 131.5,101C 128.896,101.39 126.562,102.224 124.5,103.5C 120.96,103.753 117.627,104.419 114.5,105.5C 109.381,106.116 104.215,106.45 99,106.5C 92.7062,106.707 86.5396,106.041 80.5,104.5C 78.4727,103.139 76.806,101.473 75.5,99.5C 74.6381,95.5474 74.3048,91.5474 74.5,87.5C 75.1667,85.1667 75.8333,82.8333 76.5,80.5C 76.3339,86.1764 76.5006,91.8431 77,97.5C 78.5292,98.7287 79.6959,100.229 80.5,102C 94.8255,105.234 109.159,105.234 123.5,102C 125.061,101.059 126.395,99.8924 127.5,98.5C 125.637,97.3112 123.97,95.9779 122.5,94.5C 123.265,94.9234 124.098,95.2568 125,95.5C 126.567,94.1439 128.4,93.4772 130.5,93.5C 130.5,92.1667 130.5,90.8333 130.5,89.5C 131.404,90.209 131.737,91.209 131.5,92.5C 132.833,92.5 134.167,92.5 135.5,92.5C 135.5,91.1667 135.5,89.8333 135.5,88.5C 136.991,85.4359 137.991,82.1026 138.5,78.5C 136.614,75.0706 135.614,71.404 135.5,67.5C 135.389,66.8826 135.056,66.3826 134.5,66C 130.644,65.8227 126.977,65.3227 123.5,64.5 Z"/></g>
<g><path style="opacity:1" fill="#061d27" d="M 99.5,83.5 C 99.665,86.8499 99.4983,90.1832 99,93.5C 96.8733,95.1137 95.3733,97.1137 94.5,99.5C 92.8762,99.6399 91.7096,98.9733 91,97.5C 90.3333,93.1667 90.3333,88.8333 91,84.5C 92.3252,82.6618 94.1585,81.6618 96.5,81.5C 98.0377,81.4534 99.0377,82.1201 99.5,83.5 Z"/></g>
<g><path style="opacity:1" fill="#c1c4b4" d="M 140.5,84.5 C 140.194,87.3854 140.527,90.0521 141.5,92.5C 139.386,99.616 135.053,104.949 128.5,108.5C 128.48,106.857 129.147,105.524 130.5,104.5C 130,104.167 129.5,103.833 129,103.5C 126.744,105.085 124.244,105.752 121.5,105.5C 122.5,104.833 123.5,104.167 124.5,103.5C 126.562,102.224 128.896,101.39 131.5,101C 136.503,96.4883 139.503,90.9883 140.5,84.5 Z"/></g>
<g><path style="opacity:1" fill="#4b4b43" d="M 143.5,88.5 C 143.263,89.791 143.596,90.791 144.5,91.5C 143.213,93.6365 142.379,95.9699 142,98.5C 140.039,100.928 138.206,103.428 136.5,106C 141.011,110.845 145.845,115.345 151,119.5C 154.159,123.483 156.659,127.817 158.5,132.5C 158.672,133.492 158.338,134.158 157.5,134.5C 152.646,123.145 144.812,114.479 134,108.5C 131.332,109.391 129.499,111.057 128.5,113.5C 128.5,114.167 128.167,114.5 127.5,114.5C 127.265,113.903 126.765,113.57 126,113.5C 121.014,116.194 115.848,118.194 110.5,119.5C 93.5475,122.464 77.5475,119.964 62.5,112C 60.2968,109.628 57.9635,107.461 55.5,105.5C 52.9017,104.528 52.9017,103.528 55.5,102.5C 71.4753,118.079 90.4753,122.912 112.5,117C 117.911,115.152 122.911,112.652 127.5,109.5C 128.167,109.5 128.5,109.167 128.5,108.5C 135.053,104.949 139.386,99.616 141.5,92.5C 141.989,91.0048 142.655,89.6715 143.5,88.5 Z"/></g>
<g><path style="opacity:1" fill="#676d62" d="M 124.5,103.5 C 123.5,104.167 122.5,104.833 121.5,105.5C 119.167,105.5 116.833,105.5 114.5,105.5C 117.627,104.419 120.96,103.753 124.5,103.5 Z"/></g>
<g><path style="opacity:1" fill="#e5dabb" d="M 110.5,114.5 C 108.022,115.164 105.355,115.497 102.5,115.5C 94.4713,114.761 86.4713,113.761 78.5,112.5C 77.1431,110.814 75.8098,109.148 74.5,107.5C 75.188,103.46 76.5214,102.96 78.5,106C 88.7634,110.064 99.4301,111.898 110.5,111.5C 110.5,112.5 110.5,113.5 110.5,114.5 Z"/></g>
<g><path style="opacity:1" fill="#bfbba9" d="M 61.5,83.5 C 61.1046,87.185 60.9379,90.8517 61,94.5C 61.9959,96.6605 63.4959,98.3272 65.5,99.5C 65.5106,101.017 66.1772,102.184 67.5,103C 69.8616,104.511 72.1949,106.011 74.5,107.5C 75.8098,109.148 77.1431,110.814 78.5,112.5C 86.4713,113.761 94.4713,114.761 102.5,115.5C 105.355,115.497 108.022,115.164 110.5,114.5C 114.362,113.572 118.029,112.072 121.5,110C 123.473,109.505 125.473,109.338 127.5,109.5C 122.911,112.652 117.911,115.152 112.5,117C 90.4753,122.912 71.4753,118.079 55.5,102.5C 54.5133,100.527 53.5133,98.5266 52.5,96.5C 54.1836,95.8503 55.5169,94.8503 56.5,93.5C 58.5578,90.303 60.2245,86.9697 61.5,83.5 Z"/></g>
<g><path style="opacity:1" fill="#585850" d="M 56.5,93.5 C 55.5169,94.8503 54.1836,95.8503 52.5,96.5C 53.5133,98.5266 54.5133,100.527 55.5,102.5C 52.9017,103.528 52.9017,104.528 55.5,105.5C 52.7426,105.378 50.7426,106.545 49.5,109C 52.0292,111.029 54.6959,112.862 57.5,114.5C 59.4123,116.991 60.7456,119.658 61.5,122.5C 61.4479,131.085 60.1146,139.418 57.5,147.5C 60.1667,148.167 62.8333,148.833 65.5,149.5C 65.5,149.833 65.5,150.167 65.5,150.5C 56.7583,148.974 48.0916,147.14 39.5,145C 42.6883,143.684 46.0217,143.184 49.5,143.5C 51.1195,145.238 53.1195,145.738 55.5,145C 59.2207,137.306 60.3874,129.139 59,120.5C 51.5764,109.048 43.5764,108.714 35,119.5C 33.5787,121.405 32.412,123.405 31.5,125.5C 30.8333,125.5 30.5,125.833 30.5,126.5C 23.9619,137.563 21.7952,149.563 24,162.5C 25.0946,163.693 25.928,165.027 26.5,166.5C 25.8333,166.5 25.5,166.833 25.5,167.5C 24.8333,167.167 24.1667,166.833 23.5,166.5C 17.1704,138.483 26.6704,117.483 52,103.5C 52.6667,102.5 52.6667,101.5 52,100.5C 50.5187,99.5291 49.6854,98.1958 49.5,96.5C 51.5475,94.9255 53.8808,93.9255 56.5,93.5 Z"/></g>
<g><path style="opacity:1" fill="#e6d8bf" d="M 49.5,143.5 C 46.0217,143.184 42.6883,143.684 39.5,145C 48.0916,147.14 56.7583,148.974 65.5,150.5C 62.5836,153.597 59.7503,156.931 57,160.5C 56.0093,162.808 55.176,165.141 54.5,167.5C 45.2612,167.792 37.0945,165.125 30,159.5C 28.9067,155.784 28.4067,151.95 28.5,148C 29.3199,140.855 29.9866,133.688 30.5,126.5C 30.5,125.833 30.8333,125.5 31.5,125.5C 32.9305,125.579 34.2638,125.246 35.5,124.5C 38.3782,121.979 40.3782,118.979 41.5,115.5C 45.1041,114.755 48.7708,114.922 52.5,116C 54.1554,117.444 54.822,119.278 54.5,121.5C 58.5129,121.52 59.1795,122.853 56.5,125.5C 57.9713,131.063 57.3047,136.396 54.5,141.5C 53.1502,142.95 51.4835,143.617 49.5,143.5 Z"/></g>
<g><path style="opacity:1" fill="#aaa697" d="M 55.5,105.5 C 57.9635,107.461 60.2968,109.628 62.5,112C 77.5475,119.964 93.5475,122.464 110.5,119.5C 109.666,120.748 108.333,121.415 106.5,121.5C 101.453,121.971 96.453,122.637 91.5,123.5C 84.8895,123.653 78.2229,123.319 71.5,122.5C 68.4865,121.034 65.3198,119.701 62,118.5C 61.51,119.793 61.3433,121.127 61.5,122.5C 60.7456,119.658 59.4123,116.991 57.5,114.5C 54.6959,112.862 52.0292,111.029 49.5,109C 50.7426,106.545 52.7426,105.378 55.5,105.5 Z"/></g>
<g><path style="opacity:1" fill="#bbb4a2" d="M 127.5,114.5 C 120.491,120.658 112.158,124.158 102.5,125C 95.8333,125.667 89.1667,125.667 82.5,125C 78.5698,124.758 74.9032,123.925 71.5,122.5C 78.2229,123.319 84.8895,123.653 91.5,123.5C 96.453,122.637 101.453,121.971 106.5,121.5C 108.333,121.415 109.666,120.748 110.5,119.5C 115.848,118.194 121.014,116.194 126,113.5C 126.765,113.57 127.265,113.903 127.5,114.5 Z"/></g>
<g><path style="opacity:1" fill="#818473" d="M 128.5,113.5 C 129.117,113.611 129.617,113.944 130,114.5C 130.499,119.155 130.666,123.821 130.5,128.5C 130.167,128.5 129.833,128.5 129.5,128.5C 129.666,124.154 129.499,119.821 129,115.5C 128.823,119.356 128.323,123.023 127.5,126.5C 127.5,122.5 127.5,118.5 127.5,114.5C 128.167,114.5 128.5,114.167 128.5,113.5 Z"/></g>
<g><path style="opacity:1" fill="#898989" d="M 206.5,122.5 C 204.194,122.993 201.861,123.326 199.5,123.5C 201.713,121.688 204.047,121.355 206.5,122.5 Z"/></g>
<g><path style="opacity:1" fill="#373a2d" d="M 129.5,128.5 C 128.833,129.5 128.167,130.5 127.5,131.5C 127.5,129.833 127.5,128.167 127.5,126.5C 128.323,123.023 128.823,119.356 129,115.5C 129.499,119.821 129.666,124.154 129.5,128.5 Z"/></g>
<g><path style="opacity:1" fill="#e9d8bf" d="M 127.5,114.5 C 127.5,118.5 127.5,122.5 127.5,126.5C 126.596,127.209 126.263,128.209 126.5,129.5C 124.012,132.35 122.345,135.683 121.5,139.5C 119.435,141.302 117.602,143.302 116,145.5C 115.127,145.265 114.293,144.931 113.5,144.5C 108.146,146.889 102.979,149.556 98,152.5C 95.367,151.911 94.2003,150.244 94.5,147.5C 93.5,147.5 92.5,147.5 91.5,147.5C 91.1667,146.5 90.5,145.833 89.5,145.5C 87.2809,140.291 84.2809,135.624 80.5,131.5C 79.2729,127.666 76.9396,126.666 73.5,128.5C 72.8333,128.5 72.5,128.833 72.5,129.5C 71.3659,131.966 71.1993,134.633 72,137.5C 72.3768,138.942 73.2101,139.942 74.5,140.5C 76.5224,142.531 78.1891,144.865 79.5,147.5C 75.2853,149.436 70.6186,150.103 65.5,149.5C 64.4181,147.661 63.5847,145.661 63,143.5C 62.8285,136.321 62.3285,129.321 61.5,122.5C 61.3433,121.127 61.51,119.793 62,118.5C 65.3198,119.701 68.4865,121.034 71.5,122.5C 74.9032,123.925 78.5698,124.758 82.5,125C 89.1667,125.667 95.8333,125.667 102.5,125C 112.158,124.158 120.491,120.658 127.5,114.5 Z"/></g>
<g><path style="opacity:1" fill="#e0d5c0" d="M 157.5,134.5 C 157.433,135.959 157.766,137.292 158.5,138.5C 157.883,138.611 157.383,138.944 157,139.5C 152.161,131.888 148.828,132.222 147,140.5C 145.644,141.38 144.144,141.714 142.5,141.5C 142.5,139.833 142.5,138.167 142.5,136.5C 138.791,135.201 135.458,135.201 132.5,136.5C 136.547,133.39 141.214,131.724 146.5,131.5C 143.502,130.357 140.502,130.357 137.5,131.5C 134.364,132.021 132.03,131.021 130.5,128.5C 130.666,123.821 130.499,119.155 130,114.5C 129.617,113.944 129.117,113.611 128.5,113.5C 129.499,111.057 131.332,109.391 134,108.5C 144.812,114.479 152.646,123.145 157.5,134.5 Z"/></g>
<g><path style="opacity:1" fill="#9a9e8f" d="M 73.5,128.5 C 76.9396,126.666 79.2729,127.666 80.5,131.5C 79.8333,131.5 79.1667,131.5 78.5,131.5C 77.9517,128.916 76.285,127.916 73.5,128.5 Z"/></g>
<g><path style="opacity:1" fill="#564d40" d="M 206.5,122.5 C 230.112,131.644 253.446,141.311 276.5,151.5C 276.631,152.239 276.464,152.906 276,153.5C 253.292,143.658 230.459,134.325 207.5,125.5C 201.387,124.778 195.721,126.111 190.5,129.5C 188.265,129.205 186.265,129.539 184.5,130.5C 177.102,132.361 169.769,134.527 162.5,137C 160.972,138.648 160.305,140.648 160.5,143C 160.569,144.986 161.235,146.486 162.5,147.5C 161.081,148.451 159.415,148.784 157.5,148.5C 157.557,147.391 157.89,146.391 158.5,145.5C 158.5,143.167 158.5,140.833 158.5,138.5C 157.766,137.292 157.433,135.959 157.5,134.5C 158.338,134.158 158.672,133.492 158.5,132.5C 159.261,133.391 160.261,134.058 161.5,134.5C 174.315,131.227 186.982,127.56 199.5,123.5C 201.861,123.326 204.194,122.993 206.5,122.5 Z"/></g>
<g><path style="opacity:1" fill="#cac4b3" d="M 49.5,143.5 C 51.4835,143.617 53.1502,142.95 54.5,141.5C 57.3047,136.396 57.9713,131.063 56.5,125.5C 59.1795,122.853 58.5129,121.52 54.5,121.5C 54.822,119.278 54.1554,117.444 52.5,116C 48.7708,114.922 45.1041,114.755 41.5,115.5C 40.3782,118.979 38.3782,121.979 35.5,124.5C 34.2638,125.246 32.9305,125.579 31.5,125.5C 32.412,123.405 33.5787,121.405 35,119.5C 43.5764,108.714 51.5764,109.048 59,120.5C 60.3874,129.139 59.2207,137.306 55.5,145C 53.1195,145.738 51.1195,145.238 49.5,143.5 Z"/></g>
<g><path style="opacity:1" fill="#aaafa4" d="M 129.5,128.5 C 129.833,128.5 130.167,128.5 130.5,128.5C 132.03,131.021 134.364,132.021 137.5,131.5C 134.277,133.021 130.943,134.354 127.5,135.5C 127.5,134.167 127.5,132.833 127.5,131.5C 128.167,130.5 128.833,129.5 129.5,128.5 Z"/></g>
<g><path style="opacity:1" fill="#be9e67" d="M 190.5,129.5 C 191.474,131.085 192.974,132.085 195,132.5C 195.617,133.449 195.451,134.282 194.5,135C 191.833,135 189.167,135 186.5,135C 184.367,138.839 181.034,140.839 176.5,141C 175.619,141.708 174.953,142.542 174.5,143.5C 173.833,143.5 173.167,143.5 172.5,143.5C 169.167,143.5 165.833,143.5 162.5,143.5C 162.393,141.097 163.393,139.264 165.5,138C 170.628,135.907 175.962,134.574 181.5,134C 183.056,133.28 184.056,132.113 184.5,130.5C 186.265,129.539 188.265,129.205 190.5,129.5 Z"/></g>
<g><path style="opacity:1" fill="#bf996c" d="M 207.5,125.5 C 207.5,126.5 207.5,127.5 207.5,128.5C 210.216,128.386 212.216,129.386 213.5,131.5C 211.194,131.007 208.861,130.674 206.5,130.5C 205.873,135.708 208.206,138.208 213.5,138C 213.167,138.333 212.833,138.667 212.5,139C 215.544,140.404 218.544,141.904 221.5,143.5C 222.429,142.311 222.762,140.978 222.5,139.5C 224.924,139.192 227.257,139.526 229.5,140.5C 227.294,142.085 224.961,143.585 222.5,145C 225.799,148.403 224.799,150.903 219.5,152.5C 218.893,152.376 218.56,152.043 218.5,151.5C 217.402,150.603 217.402,149.77 218.5,149C 216.5,148.333 214.5,147.667 212.5,147C 212.833,146.667 213.167,146.333 213.5,146C 211.19,145.503 208.857,145.337 206.5,145.5C 206.575,142.794 206.908,140.127 207.5,137.5C 204.428,137.183 201.428,137.516 198.5,138.5C 198.384,144.047 201.05,147.047 206.5,147.5C 206.5,149.167 206.5,150.833 206.5,152.5C 201.517,150.197 196.517,147.864 191.5,145.5C 188.706,143.706 185.706,142.373 182.5,141.5C 179.664,141.706 176.998,142.373 174.5,143.5C 174.953,142.542 175.619,141.708 176.5,141C 181.034,140.839 184.367,138.839 186.5,135C 189.167,135 191.833,135 194.5,135C 195.451,134.282 195.617,133.449 195,132.5C 192.974,132.085 191.474,131.085 190.5,129.5C 195.721,126.111 201.387,124.778 207.5,125.5 Z"/></g>
<g><path style="opacity:1" fill="#4b5c63" d="M 78.5,132.5 C 81.8333,136.833 85.1667,141.167 88.5,145.5C 88.6775,146.695 89.0109,147.862 89.5,149C 89.0261,150.608 88.3594,150.774 87.5,149.5C 85.1642,144.825 82.3309,140.492 79,136.5C 78.51,135.207 78.3433,133.873 78.5,132.5 Z"/></g>
<g><path style="opacity:1" fill="#a99474" d="M 184.5,130.5 C 184.056,132.113 183.056,133.28 181.5,134C 175.962,134.574 170.628,135.907 165.5,138C 163.393,139.264 162.393,141.097 162.5,143.5C 165.833,143.5 169.167,143.5 172.5,143.5C 169.446,145.355 166.112,146.688 162.5,147.5C 161.235,146.486 160.569,144.986 160.5,143C 160.305,140.648 160.972,138.648 162.5,137C 169.769,134.527 177.102,132.361 184.5,130.5 Z"/></g>
<g><path style="opacity:1" fill="#9da394" d="M 72.5,129.5 C 72.9111,133.221 73.5778,136.888 74.5,140.5C 73.2101,139.942 72.3768,138.942 72,137.5C 71.1993,134.633 71.3659,131.966 72.5,129.5 Z"/></g>
<g><path style="opacity:1" fill="#bbb9ab" d="M 61.5,122.5 C 62.3285,129.321 62.8285,136.321 63,143.5C 63.5847,145.661 64.4181,147.661 65.5,149.5C 62.8333,148.833 60.1667,148.167 57.5,147.5C 60.1146,139.418 61.4479,131.085 61.5,122.5 Z"/></g>
<g><path style="opacity:1" fill="#273942" d="M 73.5,128.5 C 76.285,127.916 77.9517,128.916 78.5,131.5C 78.5,131.833 78.5,132.167 78.5,132.5C 78.3433,133.873 78.51,135.207 79,136.5C 82.3309,140.492 85.1642,144.825 87.5,149.5C 88.3594,150.774 89.0261,150.608 89.5,149C 89.0109,147.862 88.6775,146.695 88.5,145.5C 88.8333,145.5 89.1667,145.5 89.5,145.5C 90.5,145.833 91.1667,146.5 91.5,147.5C 93.0862,149.67 94.4196,152.004 95.5,154.5C 96.9516,155.302 98.6183,155.802 100.5,156C 99.552,156.483 98.552,156.649 97.5,156.5C 97.7373,157.791 97.404,158.791 96.5,159.5C 92.4944,157.49 88.4944,155.49 84.5,153.5C 83.791,152.596 82.791,152.263 81.5,152.5C 81.7373,151.209 81.404,150.209 80.5,149.5C 80.6716,148.508 80.3382,147.842 79.5,147.5C 78.1891,144.865 76.5224,142.531 74.5,140.5C 73.5778,136.888 72.9111,133.221 72.5,129.5C 72.5,128.833 72.8333,128.5 73.5,128.5 Z"/></g>
<g><path style="opacity:1" fill="#40463c" d="M 78.5,132.5 C 78.5,132.167 78.5,131.833 78.5,131.5C 79.1667,131.5 79.8333,131.5 80.5,131.5C 84.2809,135.624 87.2809,140.291 89.5,145.5C 89.1667,145.5 88.8333,145.5 88.5,145.5C 85.1667,141.167 81.8333,136.833 78.5,132.5 Z"/></g>
<g><path style="opacity:1" fill="#ac9674" d="M 207.5,125.5 C 230.459,134.325 253.292,143.658 276,153.5C 276.464,152.906 276.631,152.239 276.5,151.5C 277.404,152.209 277.737,153.209 277.5,154.5C 267.798,150.689 257.798,147.522 247.5,145C 246.833,144.667 246.167,144.333 245.5,144C 246.833,143.333 246.833,142.667 245.5,142C 243.19,141.503 240.857,141.337 238.5,141.5C 238.5,140.5 238.5,139.5 238.5,138.5C 236.473,138.662 234.473,138.495 232.5,138C 226.391,135.059 220.057,132.893 213.5,131.5C 212.216,129.386 210.216,128.386 207.5,128.5C 207.5,127.5 207.5,126.5 207.5,125.5 Z"/></g>
<g><path style="opacity:1" fill="#ead8c0" d="M 158.5,138.5 C 158.5,140.833 158.5,143.167 158.5,145.5C 156.709,144.517 155.209,143.184 154,141.5C 150.345,144.989 146.845,148.655 143.5,152.5C 142.548,150.955 142.215,149.288 142.5,147.5C 138.927,147.041 135.927,148.041 133.5,150.5C 133.193,149.113 133.193,147.446 133.5,145.5C 126.204,145.07 125.871,143.736 132.5,141.5C 133.434,139.905 133.434,138.239 132.5,136.5C 135.458,135.201 138.791,135.201 142.5,136.5C 142.5,138.167 142.5,139.833 142.5,141.5C 144.144,141.714 145.644,141.38 147,140.5C 148.828,132.222 152.161,131.888 157,139.5C 157.383,138.944 157.883,138.611 158.5,138.5 Z"/></g>
<g><path style="opacity:1" fill="#bd9d65" d="M 218.5,151.5 C 217.209,151.263 216.209,151.596 215.5,152.5C 212.5,152.5 209.5,152.5 206.5,152.5C 206.5,150.833 206.5,149.167 206.5,147.5C 201.05,147.047 198.384,144.047 198.5,138.5C 201.428,137.516 204.428,137.183 207.5,137.5C 206.908,140.127 206.575,142.794 206.5,145.5C 208.857,145.337 211.19,145.503 213.5,146C 213.167,146.333 212.833,146.667 212.5,147C 214.5,147.667 216.5,148.333 218.5,149C 217.402,149.77 217.402,150.603 218.5,151.5 Z"/></g>
<g><path style="opacity:1" fill="#525247" d="M 127.5,126.5 C 127.5,128.167 127.5,129.833 127.5,131.5C 127.5,132.833 127.5,134.167 127.5,135.5C 130.943,134.354 134.277,133.021 137.5,131.5C 140.502,130.357 143.502,130.357 146.5,131.5C 141.214,131.724 136.547,133.39 132.5,136.5C 123.257,141.313 118.924,148.979 119.5,159.5C 118.834,156.311 118.167,152.977 117.5,149.5C 117.524,150.786 117.19,152.12 116.5,153.5C 114.365,151.631 111.698,150.964 108.5,151.5C 113.056,151.161 116.889,149.161 120,145.5C 123.047,140.526 125.214,135.192 126.5,129.5C 126.263,128.209 126.596,127.209 127.5,126.5 Z"/></g>
<g><path style="opacity:1" fill="#d9d0ba" d="M 132.5,136.5 C 133.434,138.239 133.434,139.905 132.5,141.5C 125.871,143.736 126.204,145.07 133.5,145.5C 133.193,147.446 133.193,149.113 133.5,150.5C 135.927,148.041 138.927,147.041 142.5,147.5C 142.215,149.288 142.548,150.955 143.5,152.5C 146.845,148.655 150.345,144.989 154,141.5C 155.209,143.184 156.709,144.517 158.5,145.5C 157.89,146.391 157.557,147.391 157.5,148.5C 156.336,152.006 154.003,154.006 150.5,154.5C 148.417,156.424 146.417,158.591 144.5,161C 141.919,163.159 139.253,163.659 136.5,162.5C 137.215,158.569 138.882,155.069 141.5,152C 141.167,151.5 140.833,151 140.5,150.5C 137.753,153.912 135.42,157.578 133.5,161.5C 130.799,165.467 127.966,165.467 125,161.5C 124.955,158.78 125.455,156.114 126.5,153.5C 127.764,151.73 129.264,150.063 131,148.5C 131.688,147.668 131.521,147.002 130.5,146.5C 127.651,148.012 125.984,150.345 125.5,153.5C 124.076,155.515 123.41,157.848 123.5,160.5C 121.901,160.768 120.568,160.434 119.5,159.5C 118.924,148.979 123.257,141.313 132.5,136.5 Z"/></g>
<g><path style="opacity:1" fill="#aea9a0" d="M 79.5,147.5 C 80.3382,147.842 80.6716,148.508 80.5,149.5C 75.6946,150.487 70.6946,150.821 65.5,150.5C 65.5,150.167 65.5,149.833 65.5,149.5C 70.6186,150.103 75.2853,149.436 79.5,147.5 Z"/></g>
<g><path style="opacity:1" fill="#645643" d="M 126.5,153.5 C 126.167,153.5 125.833,153.5 125.5,153.5C 125.984,150.345 127.651,148.012 130.5,146.5C 131.521,147.002 131.688,147.668 131,148.5C 129.264,150.063 127.764,151.73 126.5,153.5 Z"/></g>
<g><path style="opacity:1" fill="#c2bfaf" d="M 126.5,129.5 C 125.214,135.192 123.047,140.526 120,145.5C 116.889,149.161 113.056,151.161 108.5,151.5C 105.458,151.733 102.792,152.733 100.5,154.5C 98.8333,154.5 97.1667,154.5 95.5,154.5C 94.4196,152.004 93.0862,149.67 91.5,147.5C 92.5,147.5 93.5,147.5 94.5,147.5C 94.2003,150.244 95.367,151.911 98,152.5C 102.979,149.556 108.146,146.889 113.5,144.5C 114.293,144.931 115.127,145.265 116,145.5C 117.602,143.302 119.435,141.302 121.5,139.5C 122.345,135.683 124.012,132.35 126.5,129.5 Z"/></g>
<g><path style="opacity:1" fill="#e9e3d6" d="M 189.5,146.5 C 194.202,149.518 199.202,152.018 204.5,154C 205.731,155.405 207.064,156.571 208.5,157.5C 205.685,157.108 203.185,156.108 201,154.5C 198.267,156.428 197.1,155.761 197.5,152.5C 194.119,152.46 190.786,152.793 187.5,153.5C 187.5,154.5 187.5,155.5 187.5,156.5C 190.5,156.167 191.833,157.5 191.5,160.5C 188.245,159.234 185.245,157.568 182.5,155.5C 180.385,152.483 177.718,151.816 174.5,153.5C 170.55,154.592 166.883,156.259 163.5,158.5C 159.378,158.826 155.711,160.16 152.5,162.5C 151.833,162.5 151.167,162.5 150.5,162.5C 149.761,162.631 149.094,162.464 148.5,162C 150.141,160.871 151.141,159.371 151.5,157.5C 153.978,155.197 156.645,153.031 159.5,151C 166.242,148.864 172.909,146.531 179.5,144C 181.167,143.333 182.833,143.333 184.5,144C 186.078,145.094 187.745,145.928 189.5,146.5 Z"/></g>
<g><path style="opacity:1" fill="#6e6657" d="M 136.5,162.5 C 135.778,162.082 135.278,161.416 135,160.5C 134.617,161.056 134.117,161.389 133.5,161.5C 135.42,157.578 137.753,153.912 140.5,150.5C 140.833,151 141.167,151.5 141.5,152C 138.882,155.069 137.215,158.569 136.5,162.5 Z"/></g>
<g><path style="opacity:1" fill="#969590" d="M 174.5,153.5 C 177.718,151.816 180.385,152.483 182.5,155.5C 180.118,153.954 177.451,153.287 174.5,153.5 Z"/></g>
<g><path style="opacity:1" fill="#4a3e3a" d="M 191.5,145.5 C 191.158,146.338 190.492,146.672 189.5,146.5C 187.745,145.928 186.078,145.094 184.5,144C 182.833,143.333 181.167,143.333 179.5,144C 172.909,146.531 166.242,148.864 159.5,151C 156.645,153.031 153.978,155.197 151.5,157.5C 151.167,157.5 150.833,157.5 150.5,157.5C 149.375,156.652 149.375,155.652 150.5,154.5C 154.003,154.006 156.336,152.006 157.5,148.5C 159.415,148.784 161.081,148.451 162.5,147.5C 166.112,146.688 169.446,145.355 172.5,143.5C 173.167,143.5 173.833,143.5 174.5,143.5C 176.998,142.373 179.664,141.706 182.5,141.5C 185.706,142.373 188.706,143.706 191.5,145.5 Z"/></g>
<g><path style="opacity:1" fill="#414137" d="M 119.5,159.5 C 120.568,160.434 121.901,160.768 123.5,160.5C 123.41,157.848 124.076,155.515 125.5,153.5C 125.833,153.5 126.167,153.5 126.5,153.5C 125.455,156.114 124.955,158.78 125,161.5C 127.966,165.467 130.799,165.467 133.5,161.5C 134.117,161.389 134.617,161.056 135,160.5C 135.278,161.416 135.778,162.082 136.5,162.5C 139.253,163.659 141.919,163.159 144.5,161C 146.417,158.591 148.417,156.424 150.5,154.5C 149.375,155.652 149.375,156.652 150.5,157.5C 146.938,163.533 141.771,165.866 135,164.5C 131.935,166.486 128.769,166.819 125.5,165.5C 124.601,164.528 123.434,163.862 122,163.5C 116.308,164.728 110.975,166.728 106,169.5C 105.421,170.928 105.588,172.262 106.5,173.5C 105.001,172.322 104.001,170.655 103.5,168.5C 102.828,169.949 102.161,171.282 101.5,172.5C 102.075,168.845 101.075,165.845 98.5,163.5C 97.8333,162.167 97.1667,160.833 96.5,159.5C 97.404,158.791 97.7373,157.791 97.5,156.5C 98.552,156.649 99.552,156.483 100.5,156C 98.6183,155.802 96.9516,155.302 95.5,154.5C 97.1667,154.5 98.8333,154.5 100.5,154.5C 103.167,155.5 103.167,156.5 100.5,157.5C 98.9719,157.517 98.4719,158.184 99,159.5C 100.643,161.977 102.476,164.31 104.5,166.5C 105.107,166.376 105.44,166.043 105.5,165.5C 106.167,164.833 106.833,164.167 107.5,163.5C 109.295,165.916 111.295,165.916 113.5,163.5C 115.635,163.853 116.968,163.02 117.5,161C 116.678,158.566 116.344,156.066 116.5,153.5C 117.19,152.12 117.524,150.786 117.5,149.5C 118.167,152.977 118.834,156.311 119.5,159.5 Z"/></g>
<g><path style="opacity:1" fill="#e4dabe" d="M 68.5,153.5 C 71.6248,154.479 74.9581,154.813 78.5,154.5C 78.5,155.5 78.5,156.5 78.5,157.5C 80.5996,157.523 82.4329,156.856 84,155.5C 85.5671,156.856 87.4004,157.523 89.5,157.5C 89.5,158.833 89.5,160.167 89.5,161.5C 86.3273,160.632 83.3273,160.632 80.5,161.5C 78.9257,164.43 79.5924,166.93 82.5,169C 87.4669,168.466 89.4669,170.633 88.5,175.5C 85.5045,173.746 82.1712,172.58 78.5,172C 79.731,170.817 79.731,169.651 78.5,168.5C 77.8589,169.993 76.8589,170.993 75.5,171.5C 74.8333,171.5 74.1667,171.5 73.5,171.5C 72.6091,172.261 71.9424,173.261 71.5,174.5C 70.5,174.833 69.5,175.167 68.5,175.5C 65.9868,174.196 63.3202,173.196 60.5,172.5C 60.0622,166.679 61.3955,161.346 64.5,156.5C 65.2623,154.738 66.5956,153.738 68.5,153.5 Z"/></g>
<g><path style="opacity:1" fill="#665849" d="M 108.5,151.5 C 111.698,150.964 114.365,151.631 116.5,153.5C 116.344,156.066 116.678,158.566 117.5,161C 116.968,163.02 115.635,163.853 113.5,163.5C 115.298,160.169 115.964,156.502 115.5,152.5C 113.585,152.216 111.919,152.549 110.5,153.5C 103.567,153.359 102.233,155.692 106.5,160.5C 106.557,161.609 106.89,162.609 107.5,163.5C 106.833,164.167 106.167,164.833 105.5,165.5C 105.464,161.8 103.797,159.133 100.5,157.5C 103.167,156.5 103.167,155.5 100.5,154.5C 102.792,152.733 105.458,151.733 108.5,151.5 Z"/></g>
<g><path style="opacity:1" fill="#d7cdbe" d="M 84.5,153.5 C 88.4944,155.49 92.4944,157.49 96.5,159.5C 97.1667,160.833 97.8333,162.167 98.5,163.5C 95.9963,162.361 93.3297,161.694 90.5,161.5C 90.5,163.5 90.5,165.5 90.5,167.5C 87.4262,164.967 84.0929,162.967 80.5,161.5C 83.3273,160.632 86.3273,160.632 89.5,161.5C 89.5,160.167 89.5,158.833 89.5,157.5C 87.4004,157.523 85.5671,156.856 84,155.5C 82.4329,156.856 80.5996,157.523 78.5,157.5C 78.5,156.5 78.5,155.5 78.5,154.5C 74.9581,154.813 71.6248,154.479 68.5,153.5C 73.6814,152.364 79.0147,152.364 84.5,153.5 Z"/></g>
<g><path style="opacity:1" fill="#40403e" d="M 174.5,153.5 C 177.451,153.287 180.118,153.954 182.5,155.5C 185.245,157.568 188.245,159.234 191.5,160.5C 195.164,163.335 199.164,165.668 203.5,167.5C 203.973,168.906 204.973,169.573 206.5,169.5C 207.514,170.674 208.847,171.34 210.5,171.5C 210.179,173.048 209.179,173.715 207.5,173.5C 203.299,169.057 198.632,168.39 193.5,171.5C 191.164,172.343 188.831,172.843 186.5,173C 188.431,172.098 190.097,170.931 191.5,169.5C 192.718,168.839 194.051,168.172 195.5,167.5C 190.182,163.173 184.516,159.339 178.5,156C 177.167,155.333 175.833,155.333 174.5,156C 171.852,158.05 168.852,159.216 165.5,159.5C 164.508,159.672 163.842,159.338 163.5,158.5C 166.883,156.259 170.55,154.592 174.5,153.5 Z"/></g>
<g><path style="opacity:1" fill="#b59468" d="M 110.5,153.5 C 111.822,153.33 112.989,153.663 114,154.5C 115.086,160.88 112.586,162.88 106.5,160.5C 102.233,155.692 103.567,153.359 110.5,153.5 Z"/></g>
<g><path style="opacity:1" fill="#857e72" d="M 163.5,158.5 C 163.842,159.338 164.508,159.672 165.5,159.5C 162.07,161.613 158.403,163.28 154.5,164.5C 155.66,162.797 154.993,162.131 152.5,162.5C 155.711,160.16 159.378,158.826 163.5,158.5 Z"/></g>
<g><path style="opacity:1" fill="#e8e3d8" d="M 191.5,169.5 C 188.053,170.083 185.053,171.416 182.5,173.5C 180.716,173.893 179.05,174.559 177.5,175.5C 174.487,175.893 171.82,175.226 169.5,173.5C 174.588,172.491 179.588,170.824 184.5,168.5C 185.052,166.997 185.052,165.331 184.5,163.5C 181.26,163.232 178.094,162.566 175,161.5C 174.055,161.905 173.388,162.572 173,163.5C 168.266,163.07 163.433,163.07 158.5,163.5C 158.534,166.58 157.534,169.247 155.5,171.5C 154.833,171.5 154.167,171.5 153.5,171.5C 145.33,168.153 145.664,165.82 154.5,164.5C 158.403,163.28 162.07,161.613 165.5,159.5C 168.852,159.216 171.852,158.05 174.5,156C 175.833,155.333 177.167,155.333 178.5,156C 184.516,159.339 190.182,163.173 195.5,167.5C 194.051,168.172 192.718,168.839 191.5,169.5 Z"/></g>
<g><path style="opacity:1" fill="#a1896d" d="M 110.5,153.5 C 111.919,152.549 113.585,152.216 115.5,152.5C 115.964,156.502 115.298,160.169 113.5,163.5C 111.295,165.916 109.295,165.916 107.5,163.5C 106.89,162.609 106.557,161.609 106.5,160.5C 112.586,162.88 115.086,160.88 114,154.5C 112.989,153.663 111.822,153.33 110.5,153.5 Z"/></g>
<g><path style="opacity:1" fill="#c0bbb5" d="M 100.5,157.5 C 103.797,159.133 105.464,161.8 105.5,165.5C 105.44,166.043 105.107,166.376 104.5,166.5C 102.476,164.31 100.643,161.977 99,159.5C 98.4719,158.184 98.9719,157.517 100.5,157.5 Z"/></g>
<g><path style="opacity:1" fill="#e0dfd4" d="M 191.5,160.5 C 196.463,161.254 201.463,161.587 206.5,161.5C 205.533,166.367 207.533,168.534 212.5,168C 213.244,169.815 213.911,171.648 214.5,173.5C 212.938,173.267 211.605,172.6 210.5,171.5C 208.847,171.34 207.514,170.674 206.5,169.5C 206.027,168.094 205.027,167.427 203.5,167.5C 199.164,165.668 195.164,163.335 191.5,160.5 Z"/></g>
<g><path style="opacity:1" fill="#c29b69" d="M 213.5,131.5 C 220.057,132.893 226.391,135.059 232.5,138C 234.473,138.495 236.473,138.662 238.5,138.5C 238.5,139.5 238.5,140.5 238.5,141.5C 240.857,141.337 243.19,141.503 245.5,142C 246.833,142.667 246.833,143.333 245.5,144C 246.167,144.333 246.833,144.667 247.5,145C 257.798,147.522 267.798,150.689 277.5,154.5C 275.552,157.621 273.385,160.621 271,163.5C 270.083,167.762 270.583,171.762 272.5,175.5C 272.662,177.527 272.495,179.527 272,181.5C 271.55,178.894 270.05,177.561 267.5,177.5C 267.5,179.167 267.5,180.833 267.5,182.5C 263.415,183.341 260.415,182.008 258.5,178.5C 255.261,176.964 252.094,175.297 249,173.5C 246.566,172.678 244.066,172.344 241.5,172.5C 238.331,171.083 235.331,169.417 232.5,167.5C 230.874,162.852 227.541,160.185 222.5,159.5C 219.766,157.567 217.433,155.233 215.5,152.5C 216.209,151.596 217.209,151.263 218.5,151.5C 218.56,152.043 218.893,152.376 219.5,152.5C 224.799,150.903 225.799,148.403 222.5,145C 224.961,143.585 227.294,142.085 229.5,140.5C 227.257,139.526 224.924,139.192 222.5,139.5C 222.762,140.978 222.429,142.311 221.5,143.5C 218.544,141.904 215.544,140.404 212.5,139C 212.833,138.667 213.167,138.333 213.5,138C 208.206,138.208 205.873,135.708 206.5,130.5C 208.861,130.674 211.194,131.007 213.5,131.5 Z"/></g>
<g><path style="opacity:1" fill="#635e57" d="M 80.5,149.5 C 81.404,150.209 81.7373,151.209 81.5,152.5C 82.791,152.263 83.791,152.596 84.5,153.5C 79.0147,152.364 73.6814,152.364 68.5,153.5C 66.5956,153.738 65.2623,154.738 64.5,156.5C 61.4483,157.88 59.2817,160.214 58,163.5C 57.2832,168.22 57.4498,172.886 58.5,177.5C 56.3888,178.742 54.3888,178.742 52.5,177.5C 53.5,177.5 54.5,177.5 55.5,177.5C 55.1667,174.833 54.8333,172.167 54.5,169.5C 54.5,168.833 54.5,168.167 54.5,167.5C 55.176,165.141 56.0093,162.808 57,160.5C 59.7503,156.931 62.5836,153.597 65.5,150.5C 70.6946,150.821 75.6946,150.487 80.5,149.5 Z"/></g>
<g><path style="opacity:1" fill="#f7ebd7" d="M 169.5,173.5 C 165.818,173.665 162.152,173.499 158.5,173C 157.263,172.768 156.263,172.268 155.5,171.5C 157.534,169.247 158.534,166.58 158.5,163.5C 163.433,163.07 168.266,163.07 173,163.5C 173.388,162.572 174.055,161.905 175,161.5C 178.094,162.566 181.26,163.232 184.5,163.5C 185.052,165.331 185.052,166.997 184.5,168.5C 179.588,170.824 174.588,172.491 169.5,173.5 Z"/></g>
<g><path style="opacity:1" fill="#ac926f" d="M 206.5,152.5 C 209.5,152.5 212.5,152.5 215.5,152.5C 217.433,155.233 219.766,157.567 222.5,159.5C 227.541,160.185 230.874,162.852 232.5,167.5C 223.312,163.291 214.645,158.291 206.5,152.5 Z"/></g>
<g><path style="opacity:1" fill="#e5dbb9" d="M 98.5,163.5 C 98.9358,166.364 98.1025,168.697 96,170.5C 94.5123,168.84 92.679,167.84 90.5,167.5C 90.5,165.5 90.5,163.5 90.5,161.5C 93.3297,161.694 95.9963,162.361 98.5,163.5 Z"/></g>
<g><path style="opacity:1" fill="#b1b5ad" d="M 150.5,157.5 C 150.833,157.5 151.167,157.5 151.5,157.5C 151.141,159.371 150.141,160.871 148.5,162C 149.094,162.464 149.761,162.631 150.5,162.5C 147.914,163.946 145.58,165.613 143.5,167.5C 138.729,166.321 133.895,166.321 129,167.5C 127.319,167.392 126.152,166.725 125.5,165.5C 128.769,166.819 131.935,166.486 135,164.5C 141.771,165.866 146.938,163.533 150.5,157.5 Z"/></g>
<g><path style="opacity:1" fill="#96938c" d="M 203.5,167.5 C 205.027,167.427 206.027,168.094 206.5,169.5C 204.973,169.573 203.973,168.906 203.5,167.5 Z"/></g>
<g><path style="opacity:1" fill="#b3aea3" d="M 27.5,167.5 C 31.964,167.823 35.964,169.323 39.5,172C 41.8098,172.497 44.1432,172.663 46.5,172.5C 46.5,173.5 46.5,174.5 46.5,175.5C 48.5273,175.662 50.5273,175.495 52.5,175C 53.1094,173.052 53.776,171.218 54.5,169.5C 54.8333,172.167 55.1667,174.833 55.5,177.5C 54.5,177.5 53.5,177.5 52.5,177.5C 42.9553,176.881 34.622,173.548 27.5,167.5 Z"/></g>
<g><path style="opacity:1" fill="#c7c0ac" d="M 30.5,126.5 C 29.9866,133.688 29.3199,140.855 28.5,148C 28.4067,151.95 28.9067,155.784 30,159.5C 37.0945,165.125 45.2612,167.792 54.5,167.5C 54.5,168.167 54.5,168.833 54.5,169.5C 53.776,171.218 53.1094,173.052 52.5,175C 50.5273,175.495 48.5273,175.662 46.5,175.5C 46.5,174.5 46.5,173.5 46.5,172.5C 44.1432,172.663 41.8098,172.497 39.5,172C 35.964,169.323 31.964,167.823 27.5,167.5C 26.8333,167.5 26.5,167.167 26.5,166.5C 25.928,165.027 25.0946,163.693 24,162.5C 21.7952,149.563 23.9619,137.563 30.5,126.5 Z"/></g>
<g><path style="opacity:1" fill="#433f3b" d="M 150.5,162.5 C 151.167,162.5 151.833,162.5 152.5,162.5C 154.993,162.131 155.66,162.797 154.5,164.5C 145.664,165.82 145.33,168.153 153.5,171.5C 154.579,173.543 156.246,174.876 158.5,175.5C 156.95,176.72 155.284,176.72 153.5,175.5C 149.878,173.213 146.545,170.547 143.5,167.5C 145.58,165.613 147.914,163.946 150.5,162.5 Z"/></g>
<g><path style="opacity:1" fill="#e9e3d4" d="M 125.5,165.5 C 126.152,166.725 127.319,167.392 129,167.5C 133.895,166.321 138.729,166.321 143.5,167.5C 146.545,170.547 149.878,173.213 153.5,175.5C 150.66,177.915 147.327,179.248 143.5,179.5C 139.709,176.882 136.043,174.049 132.5,171C 131.552,170.517 130.552,170.351 129.5,170.5C 123.615,173.137 117.615,175.471 111.5,177.5C 109.801,177.473 108.467,176.806 107.5,175.5C 107.672,174.508 107.338,173.842 106.5,173.5C 105.588,172.262 105.421,170.928 106,169.5C 110.975,166.728 116.308,164.728 122,163.5C 123.434,163.862 124.601,164.528 125.5,165.5 Z"/></g>
<g><path style="opacity:1" fill="#584d3b" d="M 191.5,145.5 C 196.517,147.864 201.517,150.197 206.5,152.5C 214.645,158.291 223.312,163.291 232.5,167.5C 235.331,169.417 238.331,171.083 241.5,172.5C 250.987,178.838 260.82,184.838 271,190.5C 271.667,191.5 271.667,192.5 271,193.5C 268.985,194.697 267.151,196.03 265.5,197.5C 265.167,197.5 264.833,197.5 264.5,197.5C 254.833,202.331 245.5,207.664 236.5,213.5C 234.821,213.892 233.154,214.392 231.5,215C 224.606,219.452 217.606,223.619 210.5,227.5C 196.88,234.809 183.213,241.809 169.5,248.5C 170.167,247.5 170.833,246.5 171.5,245.5C 197.93,231.625 223.93,217.292 249.5,202.5C 255.946,199.224 262.28,195.724 268.5,192C 248.93,179.716 228.93,168.216 208.5,157.5C 207.064,156.571 205.731,155.405 204.5,154C 199.202,152.018 194.202,149.518 189.5,146.5C 190.492,146.672 191.158,146.338 191.5,145.5 Z"/></g>
<g><path style="opacity:1" fill="#c0c4bf" d="M 23.5,166.5 C 24.1667,166.833 24.8333,167.167 25.5,167.5C 26.6843,168.688 26.6843,169.855 25.5,171C 21.896,172.154 18.2293,172.987 14.5,173.5C 17.092,171.823 20.092,170.657 23.5,170C 24.1712,169.014 24.1712,167.847 23.5,166.5 Z"/></g>
<g><path style="opacity:1" fill="#c9bcb0" d="M 98.5,163.5 C 101.075,165.845 102.075,168.845 101.5,172.5C 101.167,173.5 100.5,174.167 99.5,174.5C 95.0828,174.092 92.0828,171.759 90.5,167.5C 92.679,167.84 94.5123,168.84 96,170.5C 98.1025,168.697 98.9358,166.364 98.5,163.5 Z"/></g>
<g><path style="opacity:1" fill="#787468" d="M 129.5,170.5 C 129.5,171.5 129.5,172.5 129.5,173.5C 130.791,173.263 131.791,173.596 132.5,174.5C 130.265,174.205 128.265,174.539 126.5,175.5C 121.155,177.175 115.822,178.842 110.5,180.5C 110.5,179.833 110.167,179.5 109.5,179.5C 110.167,178.833 110.833,178.167 111.5,177.5C 117.615,175.471 123.615,173.137 129.5,170.5 Z"/></g>
<g><path style="opacity:1" fill="#73746d" d="M 191.5,169.5 C 190.097,170.931 188.431,172.098 186.5,173C 188.831,172.843 191.164,172.343 193.5,171.5C 190.947,173.584 187.947,174.917 184.5,175.5C 185.66,173.797 184.993,173.131 182.5,173.5C 185.053,171.416 188.053,170.083 191.5,169.5 Z"/></g>
<g><path style="opacity:1" fill="#d6ccbb" d="M 80.5,161.5 C 84.7539,164.924 88.5872,168.924 92,173.5C 93.1523,179.568 90.6523,181.735 84.5,180C 81.6043,176.934 78.6043,174.101 75.5,171.5C 76.8589,170.993 77.8589,169.993 78.5,168.5C 79.731,169.651 79.731,170.817 78.5,172C 82.1712,172.58 85.5045,173.746 88.5,175.5C 89.4669,170.633 87.4669,168.466 82.5,169C 79.5924,166.93 78.9257,164.43 80.5,161.5 Z"/></g>
<g><path style="opacity:1" fill="#bdb6ab" d="M 153.5,171.5 C 154.167,171.5 154.833,171.5 155.5,171.5C 156.263,172.268 157.263,172.768 158.5,173C 162.152,173.499 165.818,173.665 169.5,173.5C 171.82,175.226 174.487,175.893 177.5,175.5C 175.285,176.268 172.952,176.935 170.5,177.5C 170.389,176.883 170.056,176.383 169.5,176C 166.408,175.264 163.408,175.431 160.5,176.5C 160.158,175.662 159.492,175.328 158.5,175.5C 156.246,174.876 154.579,173.543 153.5,171.5 Z"/></g>
<g><path style="opacity:1" fill="#463e34" d="M 26.5,166.5 C 26.5,167.167 26.8333,167.5 27.5,167.5C 34.622,173.548 42.9553,176.881 52.5,177.5C 54.3888,178.742 56.3888,178.742 58.5,177.5C 59.5,178.167 60.5,178.833 61.5,179.5C 61.6107,180.117 61.944,180.617 62.5,181C 61.5842,181.278 60.9175,181.778 60.5,182.5C 59.209,182.263 58.209,182.596 57.5,183.5C 57.1667,183.5 56.8333,183.5 56.5,183.5C 53.3793,183.736 51.046,185.069 49.5,187.5C 48.8333,187.5 48.1667,187.5 47.5,187.5C 46.8333,187.5 46.5,187.167 46.5,186.5C 46.3691,185.624 46.7025,184.957 47.5,184.5C 50.5,183.333 53.5,182.167 56.5,181C 47.4377,179.46 38.7711,176.794 30.5,173C 28.2884,172.211 26.2884,172.378 24.5,173.5C 20.6807,173.883 17.014,174.883 13.5,176.5C 12.7025,176.043 12.3691,175.376 12.5,174.5C 12.8417,173.662 13.5084,173.328 14.5,173.5C 18.2293,172.987 21.896,172.154 25.5,171C 26.6843,169.855 26.6843,168.688 25.5,167.5C 25.5,166.833 25.8333,166.5 26.5,166.5 Z"/></g>
<g><path style="opacity:1" fill="#7b726b" d="M 210.5,171.5 C 211.605,172.6 212.938,173.267 214.5,173.5C 215.694,174.272 216.694,175.272 217.5,176.5C 216.662,176.842 216.328,177.508 216.5,178.5C 213.304,177.071 210.304,175.405 207.5,173.5C 209.179,173.715 210.179,173.048 210.5,171.5 Z"/></g>
<g><path style="opacity:1" fill="#cbc4b1" d="M 64.5,156.5 C 61.3955,161.346 60.0622,166.679 60.5,172.5C 63.3202,173.196 65.9868,174.196 68.5,175.5C 69.5,175.167 70.5,174.833 71.5,174.5C 71.9424,173.261 72.6091,172.261 73.5,171.5C 76.3986,174.742 79.3986,178.075 82.5,181.5C 82.2907,182.086 81.9574,182.586 81.5,183C 79.1902,183.497 76.8568,183.663 74.5,183.5C 72.7162,183.107 71.0495,182.441 69.5,181.5C 66.997,180.629 64.3303,179.963 61.5,179.5C 60.5,178.833 59.5,178.167 58.5,177.5C 57.4498,172.886 57.2832,168.22 58,163.5C 59.2817,160.214 61.4483,157.88 64.5,156.5 Z"/></g>
<g><path style="opacity:1" fill="#a8a5a6" d="M 107.5,175.5 C 108.467,176.806 109.801,177.473 111.5,177.5C 110.833,178.167 110.167,178.833 109.5,179.5C 107.824,178.817 107.157,177.483 107.5,175.5 Z"/></g>
<g><path style="opacity:1" fill="#8b8580" d="M 153.5,175.5 C 155.284,176.72 156.95,176.72 158.5,175.5C 159.492,175.328 160.158,175.662 160.5,176.5C 158.586,177.185 156.586,177.685 154.5,178C 153.226,178.977 153.226,179.811 154.5,180.5C 154.5,181.5 154.5,182.5 154.5,183.5C 153.596,184.209 153.263,185.209 153.5,186.5C 151.596,186.262 150.262,185.262 149.5,183.5C 150.586,183.38 151.253,182.713 151.5,181.5C 151.167,180.833 150.833,180.167 150.5,179.5C 148.787,179.879 147.787,180.879 147.5,182.5C 146.26,181.341 144.926,180.341 143.5,179.5C 147.327,179.248 150.66,177.915 153.5,175.5 Z"/></g>
<g><path style="opacity:1" fill="#bd9c7d" d="M 24.5,173.5 C 21.4347,174.727 19.1013,176.893 17.5,180C 19.8247,182.009 22.3247,183.842 25,185.5C 25.49,186.793 25.6567,188.127 25.5,189.5C 21.8951,187.073 18.3951,184.407 15,181.5C 14.2106,179.42 13.0439,177.586 11.5,176C 11.5699,175.235 11.9033,174.735 12.5,174.5C 12.3691,175.376 12.7025,176.043 13.5,176.5C 17.014,174.883 20.6807,173.883 24.5,173.5 Z"/></g>
<g><path style="opacity:1" fill="#9d8360" d="M 24.5,173.5 C 26.2884,172.378 28.2884,172.211 30.5,173C 38.7711,176.794 47.4377,179.46 56.5,181C 53.5,182.167 50.5,183.333 47.5,184.5C 46.7025,184.957 46.3691,185.624 46.5,186.5C 45.8386,185.282 45.1719,183.949 44.5,182.5C 37.2022,180.511 30.5356,177.511 24.5,173.5 Z"/></g>
<g><path style="opacity:1" fill="#615a5d" d="M 61.5,179.5 C 64.3303,179.963 66.997,180.629 69.5,181.5C 68.1266,181.343 66.7932,181.51 65.5,182C 66.7375,182.232 67.7375,182.732 68.5,183.5C 65.8333,183.167 63.1667,182.833 60.5,182.5C 60.9175,181.778 61.5842,181.278 62.5,181C 61.944,180.617 61.6107,180.117 61.5,179.5 Z"/></g>
<g><path style="opacity:1" fill="#575349" d="M 80.5,161.5 C 84.0929,162.967 87.4262,164.967 90.5,167.5C 92.0828,171.759 95.0828,174.092 99.5,174.5C 98.5,175.167 97.5,175.833 96.5,176.5C 94.9743,178.323 93.3076,180.156 91.5,182C 89.1667,182.333 86.8333,182.667 84.5,183C 83.6195,183.708 82.9528,184.542 82.5,185.5C 82.5,185.833 82.5,186.167 82.5,186.5C 79.6146,186.806 76.9479,186.473 74.5,185.5C 76.5273,185.662 78.5273,185.495 80.5,185C 78.2922,184.809 76.2922,184.309 74.5,183.5C 76.8568,183.663 79.1902,183.497 81.5,183C 81.9574,182.586 82.2907,182.086 82.5,181.5C 79.3986,178.075 76.3986,174.742 73.5,171.5C 74.1667,171.5 74.8333,171.5 75.5,171.5C 78.6043,174.101 81.6043,176.934 84.5,180C 90.6523,181.735 93.1523,179.568 92,173.5C 88.5872,168.924 84.7539,164.924 80.5,161.5 Z"/></g>
<g><path style="opacity:1" fill="#a3a89e" d="M 96.5,176.5 C 97.3037,178.189 98.3037,179.855 99.5,181.5C 98.6798,183.111 97.3464,183.778 95.5,183.5C 93.5,183.5 92.5,184.5 92.5,186.5C 91.596,185.791 91.2627,184.791 91.5,183.5C 88.2153,183.21 85.2153,183.877 82.5,185.5C 82.9528,184.542 83.6195,183.708 84.5,183C 86.8333,182.667 89.1667,182.333 91.5,182C 93.3076,180.156 94.9743,178.323 96.5,176.5 Z"/></g>
<g><path style="opacity:1" fill="#d4d1d1" d="M 149.5,183.5 C 148.833,183.167 148.167,182.833 147.5,182.5C 147.787,180.879 148.787,179.879 150.5,179.5C 150.833,180.167 151.167,180.833 151.5,181.5C 151.253,182.713 150.586,183.38 149.5,183.5 Z"/></g>
<g><path style="opacity:1" fill="#bc9a71" d="M 241.5,172.5 C 244.066,172.344 246.566,172.678 249,173.5C 252.094,175.297 255.261,176.964 258.5,178.5C 260.415,182.008 263.415,183.341 267.5,182.5C 267.5,180.833 267.5,179.167 267.5,177.5C 270.05,177.561 271.55,178.894 272,181.5C 272.495,179.527 272.662,177.527 272.5,175.5C 274.262,176.262 275.262,177.596 275.5,179.5C 277.039,184.346 277.706,189.346 277.5,194.5C 275.853,197.473 273.853,200.14 271.5,202.5C 271.5,200.833 271.5,199.167 271.5,197.5C 269.5,197.5 267.5,197.5 265.5,197.5C 267.151,196.03 268.985,194.697 271,193.5C 271.667,192.5 271.667,191.5 271,190.5C 260.82,184.838 250.987,178.838 241.5,172.5 Z"/></g>
<g><path style="opacity:1" fill="#262f35" d="M 106.5,173.5 C 107.338,173.842 107.672,174.508 107.5,175.5C 107.157,177.483 107.824,178.817 109.5,179.5C 110.167,179.5 110.5,179.833 110.5,180.5C 110.5,180.833 110.5,181.167 110.5,181.5C 109.726,184.141 109.393,186.808 109.5,189.5C 107.684,188.185 106.017,186.685 104.5,185C 102.527,184.505 100.527,184.338 98.5,184.5C 98.3505,185.552 98.5172,186.552 99,187.5C 101.439,189.629 103.939,191.629 106.5,193.5C 107.911,195.914 109.911,197.581 112.5,198.5C 113.167,199.833 114.167,200.833 115.5,201.5C 116.209,202.404 117.209,202.737 118.5,202.5C 118.263,203.791 118.596,204.791 119.5,205.5C 120.167,205.5 120.5,205.833 120.5,206.5C 120.631,207.376 120.298,208.043 119.5,208.5C 118.583,207.873 117.583,207.539 116.5,207.5C 109.141,201.138 101.808,194.804 94.5,188.5C 94.5858,187.504 94.2524,186.671 93.5,186C 94.3805,185.292 95.0472,184.458 95.5,183.5C 97.3464,183.778 98.6798,183.111 99.5,181.5C 98.3037,179.855 97.3037,178.189 96.5,176.5C 97.5,175.833 98.5,175.167 99.5,174.5C 100.5,174.167 101.167,173.5 101.5,172.5C 102.161,171.282 102.828,169.949 103.5,168.5C 104.001,170.655 105.001,172.322 106.5,173.5 Z"/></g>
<g><path style="opacity:1" fill="#d0c0a5" d="M 275.5,179.5 C 276.793,180.842 277.626,182.509 278,184.5C 278.808,188.027 278.641,191.36 277.5,194.5C 277.706,189.346 277.039,184.346 275.5,179.5 Z"/></g>
<g><path style="opacity:1" fill="#454035" d="M 69.5,181.5 C 71.0495,182.441 72.7162,183.107 74.5,183.5C 76.2922,184.309 78.2922,184.809 80.5,185C 78.5273,185.495 76.5273,185.662 74.5,185.5C 72.4214,185.029 70.4214,184.363 68.5,183.5C 67.7375,182.732 66.7375,182.232 65.5,182C 66.7932,181.51 68.1266,181.343 69.5,181.5 Z"/></g>
<g><path style="opacity:1" fill="#dedcd0" d="M 170.5,177.5 C 168.364,178.403 166.364,179.569 164.5,181C 165.699,182.694 167.032,184.194 168.5,185.5C 163.442,185.772 160.442,183.439 159.5,178.5C 157.302,178.12 155.635,178.787 154.5,180.5C 153.226,179.811 153.226,178.977 154.5,178C 156.586,177.685 158.586,177.185 160.5,176.5C 163.408,175.431 166.408,175.264 169.5,176C 170.056,176.383 170.389,176.883 170.5,177.5 Z"/></g>
<g><path style="opacity:1" fill="#3f403d" d="M 217.5,176.5 C 228.233,182.287 238.567,188.62 248.5,195.5C 243.115,197.026 238.115,199.36 233.5,202.5C 232.761,202.631 232.094,202.464 231.5,202C 232.252,201.329 232.586,200.496 232.5,199.5C 235.643,198.095 238.643,196.428 241.5,194.5C 240.06,193.048 238.394,192.048 236.5,191.5C 231.666,186.91 225.999,183.577 219.5,181.5C 212.342,184.249 205.342,187.249 198.5,190.5C 198.281,189.325 198.614,188.325 199.5,187.5C 205.362,184.673 211.028,181.673 216.5,178.5C 216.328,177.508 216.662,176.842 217.5,176.5 Z"/></g>
<g><path style="opacity:1" fill="#aba89d" d="M 57.5,183.5 C 58.209,182.596 59.209,182.263 60.5,182.5C 63.1667,182.833 65.8333,183.167 68.5,183.5C 70.4214,184.363 72.4214,185.029 74.5,185.5C 76.9479,186.473 79.6146,186.806 82.5,186.5C 79.3601,187.641 76.0267,187.808 72.5,187C 67.682,185.045 62.682,183.879 57.5,183.5 Z"/></g>
<g><path style="opacity:1" fill="#f2ecd5" d="M 168.5,185.5 C 168.5,186.5 168.5,187.5 168.5,188.5C 172.667,188.846 174.5,191.18 174,195.5C 175.081,193.233 176.581,193.066 178.5,195C 181.411,198.101 180.911,199.935 177,200.5C 173.705,199.013 170.372,197.679 167,196.5C 166.586,196.957 166.086,197.291 165.5,197.5C 163.287,195.234 161.287,192.734 159.5,190C 159.833,189.667 160.167,189.333 160.5,189C 157.977,187.64 155.977,185.807 154.5,183.5C 154.5,182.5 154.5,181.5 154.5,180.5C 155.635,178.787 157.302,178.12 159.5,178.5C 160.442,183.439 163.442,185.772 168.5,185.5 Z"/></g>
<g><path style="opacity:1" fill="#eee8d5" d="M 208.5,157.5 C 228.93,168.216 248.93,179.716 268.5,192C 262.28,195.724 255.946,199.224 249.5,202.5C 245.927,201.632 245.927,200.132 249.5,198C 248.748,197.329 248.414,196.496 248.5,195.5C 238.567,188.62 228.233,182.287 217.5,176.5C 216.694,175.272 215.694,174.272 214.5,173.5C 213.911,171.648 213.244,169.815 212.5,168C 207.533,168.534 205.533,166.367 206.5,161.5C 201.463,161.587 196.463,161.254 191.5,160.5C 191.833,157.5 190.5,156.167 187.5,156.5C 187.5,155.5 187.5,154.5 187.5,153.5C 190.786,152.793 194.119,152.46 197.5,152.5C 197.1,155.761 198.267,156.428 201,154.5C 203.185,156.108 205.685,157.108 208.5,157.5 Z"/></g>
<g><path style="opacity:1" fill="#a29f9b" d="M 56.5,183.5 C 55.0975,184.931 53.4308,186.098 51.5,187C 53.0414,188.371 54.3747,189.871 55.5,191.5C 53.2459,190.585 51.2459,189.252 49.5,187.5C 51.046,185.069 53.3793,183.736 56.5,183.5 Z"/></g>
<g><path style="opacity:1" fill="#66695e" d="M 95.5,183.5 C 95.0472,184.458 94.3805,185.292 93.5,186C 94.2524,186.671 94.5858,187.504 94.5,188.5C 93.5,188.167 92.8333,187.5 92.5,186.5C 92.5,184.5 93.5,183.5 95.5,183.5 Z"/></g>
<g><path style="opacity:1" fill="#454745" d="M 182.5,173.5 C 184.993,173.131 185.66,173.797 184.5,175.5C 179.479,176.843 174.812,179.01 170.5,182C 172.095,184.102 174.095,185.602 176.5,186.5C 176.833,187.167 177.167,187.833 177.5,188.5C 176.85,188.804 176.183,189.137 175.5,189.5C 173.132,188.111 170.799,186.778 168.5,185.5C 167.032,184.194 165.699,182.694 164.5,181C 166.364,179.569 168.364,178.403 170.5,177.5C 172.952,176.935 175.285,176.268 177.5,175.5C 179.05,174.559 180.716,173.893 182.5,173.5 Z"/></g>
<g><path style="opacity:1" fill="#c19b6a" d="M 24.5,173.5 C 30.5356,177.511 37.2022,180.511 44.5,182.5C 45.1719,183.949 45.8386,185.282 46.5,186.5C 46.5,187.167 46.8333,187.5 47.5,187.5C 50.4729,189.806 53.1395,192.473 55.5,195.5C 58.1275,199.685 61.1275,203.685 64.5,207.5C 62.5067,209.666 60.6733,211.999 59,214.5C 53.6375,209.636 48.4708,204.636 43.5,199.5C 39.9003,199.274 37.2336,197.608 35.5,194.5C 33.9547,193.548 32.288,193.215 30.5,193.5C 28.8333,192.167 27.1667,190.833 25.5,189.5C 25.6567,188.127 25.49,186.793 25,185.5C 22.3247,183.842 19.8247,182.009 17.5,180C 19.1013,176.893 21.4347,174.727 24.5,173.5 Z"/></g>
<g><path style="opacity:1" fill="#deddd3" d="M 143.5,183.5 C 144.5,184.167 145.5,184.833 146.5,185.5C 145.393,187.969 143.393,188.969 140.5,188.5C 139.916,185.715 140.916,184.048 143.5,183.5 Z"/></g>
<g><path style="opacity:1" fill="#f6ead7" d="M 126.5,175.5 C 127.675,175.281 128.675,175.614 129.5,176.5C 131.591,179.559 134.091,182.226 137,184.5C 136.842,187.179 136.342,189.846 135.5,192.5C 130.484,193.371 125.484,194.371 120.5,195.5C 115.73,196.342 112.397,194.676 110.5,190.5C 111.681,187.638 111.681,184.638 110.5,181.5C 110.5,181.167 110.5,180.833 110.5,180.5C 115.822,178.842 121.155,177.175 126.5,175.5 Z"/></g>
<g><path style="opacity:1" fill="#84837c" d="M 140.5,180.5 C 141.5,181.5 142.5,182.5 143.5,183.5C 140.916,184.048 139.916,185.715 140.5,188.5C 143.393,188.969 145.393,187.969 146.5,185.5C 148.465,185.948 148.798,186.948 147.5,188.5C 144.471,189.347 141.805,190.681 139.5,192.5C 139.804,191.85 140.137,191.183 140.5,190.5C 139.389,189.389 138.722,188.055 138.5,186.5C 139.651,184.675 140.318,182.675 140.5,180.5 Z"/></g>
<g><path style="opacity:1" fill="#e9e2d5" d="M 207.5,173.5 C 210.304,175.405 213.304,177.071 216.5,178.5C 211.028,181.673 205.362,184.673 199.5,187.5C 198.614,188.325 198.281,189.325 198.5,190.5C 205.342,187.249 212.342,184.249 219.5,181.5C 225.999,183.577 231.666,186.91 236.5,191.5C 232.037,190.054 227.371,189.22 222.5,189C 224.167,188.667 225.833,188.333 227.5,188C 222.491,181.985 217.824,182.152 213.5,188.5C 211.604,189.466 209.604,189.799 207.5,189.5C 208.076,193.122 207.076,196.122 204.5,198.5C 203.534,200.396 203.201,202.396 203.5,204.5C 205.986,205.129 208.319,206.129 210.5,207.5C 213.275,206.077 216.275,205.411 219.5,205.5C 219.167,206.167 218.833,206.833 218.5,207.5C 215.824,208.838 213.157,210.172 210.5,211.5C 206.532,209.511 202.865,207.177 199.5,204.5C 199.477,202.4 200.144,200.567 201.5,199C 200.685,197.02 199.352,195.52 197.5,194.5C 195.748,191.808 193.415,189.808 190.5,188.5C 189.71,187.599 188.71,186.932 187.5,186.5C 187.5,185.5 187.5,184.5 187.5,183.5C 189.638,183.703 191.305,184.703 192.5,186.5C 198.87,182.633 205.536,179.966 212.5,178.5C 208.471,177.97 204.638,176.97 201,175.5C 197.815,177.539 194.481,177.872 191,176.5C 188.909,177.256 187.076,178.423 185.5,180C 185.833,180.333 186.167,180.667 186.5,181C 185.101,181.595 183.768,181.428 182.5,180.5C 179.194,181.087 178.194,182.753 179.5,185.5C 178.791,186.404 177.791,186.737 176.5,186.5C 174.095,185.602 172.095,184.102 170.5,182C 174.812,179.01 179.479,176.843 184.5,175.5C 187.947,174.917 190.947,173.584 193.5,171.5C 198.632,168.39 203.299,169.057 207.5,173.5 Z"/></g>
<g><path style="opacity:1" fill="#f5ebd6" d="M 187.5,186.5 C 184.904,185.735 182.237,185.401 179.5,185.5C 178.194,182.753 179.194,181.087 182.5,180.5C 183.768,181.428 185.101,181.595 186.5,181C 186.167,180.667 185.833,180.333 185.5,180C 187.076,178.423 188.909,177.256 191,176.5C 194.481,177.872 197.815,177.539 201,175.5C 204.638,176.97 208.471,177.97 212.5,178.5C 205.536,179.966 198.87,182.633 192.5,186.5C 191.305,184.703 189.638,183.703 187.5,183.5C 187.5,184.5 187.5,185.5 187.5,186.5 Z"/></g>
<g><path style="opacity:1" fill="#f5e8d6" d="M 236.5,191.5 C 238.394,192.048 240.06,193.048 241.5,194.5C 238.643,196.428 235.643,198.095 232.5,199.5C 228.24,201.649 223.907,203.649 219.5,205.5C 216.275,205.411 213.275,206.077 210.5,207.5C 208.319,206.129 205.986,205.129 203.5,204.5C 203.201,202.396 203.534,200.396 204.5,198.5C 207.076,196.122 208.076,193.122 207.5,189.5C 209.604,189.799 211.604,189.466 213.5,188.5C 217.824,182.152 222.491,181.985 227.5,188C 225.833,188.333 224.167,188.667 222.5,189C 227.371,189.22 232.037,190.054 236.5,191.5 Z"/></g>
<g><path style="opacity:1" fill="#b8bdb7" d="M 110.5,181.5 C 111.681,184.638 111.681,187.638 110.5,190.5C 109.167,190.5 107.833,190.5 106.5,190.5C 106.5,191.5 106.5,192.5 106.5,193.5C 103.939,191.629 101.439,189.629 99,187.5C 98.5172,186.552 98.3505,185.552 98.5,184.5C 100.527,184.338 102.527,184.505 104.5,185C 106.017,186.685 107.684,188.185 109.5,189.5C 109.393,186.808 109.726,184.141 110.5,181.5 Z"/></g>
<g><path style="opacity:1" fill="#8a9384" d="M 179.5,185.5 C 182.237,185.401 184.904,185.735 187.5,186.5C 188.71,186.932 189.71,187.599 190.5,188.5C 189.167,190.167 187.833,191.833 186.5,193.5C 185.417,193.461 184.417,193.127 183.5,192.5C 182.702,192.957 182.369,193.624 182.5,194.5C 181.596,193.791 181.263,192.791 181.5,191.5C 188.802,190.09 188.969,188.757 182,187.5C 180.408,187.605 178.908,187.939 177.5,188.5C 177.167,187.833 176.833,187.167 176.5,186.5C 177.791,186.737 178.791,186.404 179.5,185.5 Z"/></g>
<g><path style="opacity:1" fill="#bcc1b9" d="M 190.5,188.5 C 193.415,189.808 195.748,191.808 197.5,194.5C 195.5,195.167 193.5,195.833 191.5,196.5C 190.957,196.44 190.624,196.107 190.5,195.5C 191.737,194.719 192.737,193.719 193.5,192.5C 193,192.167 192.5,191.833 192,191.5C 190.2,192.32 188.366,192.986 186.5,193.5C 187.833,191.833 189.167,190.167 190.5,188.5 Z"/></g>
<g><path style="opacity:1" fill="#b1b2af" d="M 106.5,193.5 C 109.089,194.419 111.089,196.086 112.5,198.5C 109.911,197.581 107.911,195.914 106.5,193.5 Z"/></g>
<g><path style="opacity:1" fill="#3a3e37" d="M 129.5,170.5 C 130.552,170.351 131.552,170.517 132.5,171C 136.043,174.049 139.709,176.882 143.5,179.5C 144.926,180.341 146.26,181.341 147.5,182.5C 148.167,182.833 148.833,183.167 149.5,183.5C 150.262,185.262 151.596,186.262 153.5,186.5C 156.021,188.701 158.521,191.034 161,193.5C 161.692,194.437 161.525,195.103 160.5,195.5C 159.222,195.218 158.222,194.551 157.5,193.5C 155.223,192.551 153.223,191.218 151.5,189.5C 147.8,190.683 144.467,192.35 141.5,194.5C 137.851,195.267 134.518,196.6 131.5,198.5C 127.627,199.434 123.961,200.934 120.5,203C 119.748,203.671 119.414,204.504 119.5,205.5C 118.596,204.791 118.263,203.791 118.5,202.5C 117.209,202.737 116.209,202.404 115.5,201.5C 123.474,198.551 131.474,195.551 139.5,192.5C 141.805,190.681 144.471,189.347 147.5,188.5C 148.798,186.948 148.465,185.948 146.5,185.5C 145.5,184.833 144.5,184.167 143.5,183.5C 142.5,182.5 141.5,181.5 140.5,180.5C 137.527,178.853 134.86,176.853 132.5,174.5C 131.791,173.596 130.791,173.263 129.5,173.5C 129.5,172.5 129.5,171.5 129.5,170.5 Z"/></g>
<g><path style="opacity:1" fill="#323535" d="M 191.5,196.5 C 190.817,198.176 189.483,198.843 187.5,198.5C 185.833,197.167 184.167,195.833 182.5,194.5C 182.369,193.624 182.702,192.957 183.5,192.5C 184.417,193.127 185.417,193.461 186.5,193.5C 188.366,192.986 190.2,192.32 192,191.5C 192.5,191.833 193,192.167 193.5,192.5C 192.737,193.719 191.737,194.719 190.5,195.5C 190.624,196.107 190.957,196.44 191.5,196.5 Z"/></g>
<g><path style="opacity:1" fill="#968f85" d="M 197.5,194.5 C 199.352,195.52 200.685,197.02 201.5,199C 200.144,200.567 199.477,202.4 199.5,204.5C 195.755,203.188 195.089,203.854 197.5,206.5C 196.5,206.5 195.5,206.5 194.5,206.5C 194.5,205.167 194.5,203.833 194.5,202.5C 198.068,202.241 199.401,200.241 198.5,196.5C 195.312,196.512 192.478,197.512 190,199.5C 188.93,199.472 188.097,199.139 187.5,198.5C 189.483,198.843 190.817,198.176 191.5,196.5C 193.5,195.833 195.5,195.167 197.5,194.5 Z"/></g>
<g><path style="opacity:1" fill="#e4e3d5" d="M 126.5,175.5 C 128.265,174.539 130.265,174.205 132.5,174.5C 134.86,176.853 137.527,178.853 140.5,180.5C 140.318,182.675 139.651,184.675 138.5,186.5C 138.722,188.055 139.389,189.389 140.5,190.5C 140.137,191.183 139.804,191.85 139.5,192.5C 131.474,195.551 123.474,198.551 115.5,201.5C 114.167,200.833 113.167,199.833 112.5,198.5C 111.089,196.086 109.089,194.419 106.5,193.5C 106.5,192.5 106.5,191.5 106.5,190.5C 107.833,190.5 109.167,190.5 110.5,190.5C 112.397,194.676 115.73,196.342 120.5,195.5C 125.484,194.371 130.484,193.371 135.5,192.5C 136.342,189.846 136.842,187.179 137,184.5C 134.091,182.226 131.591,179.559 129.5,176.5C 128.675,175.614 127.675,175.281 126.5,175.5 Z"/></g>
<g><path style="opacity:1" fill="#f4e9d6" d="M 141.5,194.5 C 145.121,195.373 148.788,196.039 152.5,196.5C 152.941,199.231 153.274,201.731 153.5,204C 149.867,208.166 145.2,210.333 139.5,210.5C 135.897,215.933 132.563,215.767 129.5,210C 128.552,209.517 127.552,209.351 126.5,209.5C 126.5,207.167 126.5,204.833 126.5,202.5C 128.349,201.407 130.016,200.074 131.5,198.5C 134.518,196.6 137.851,195.267 141.5,194.5 Z"/></g>
<g><path style="opacity:1" fill="#e8e1d3" d="M 154.5,183.5 C 155.977,185.807 157.977,187.64 160.5,189C 160.167,189.333 159.833,189.667 159.5,190C 161.287,192.734 163.287,195.234 165.5,197.5C 166.086,197.291 166.586,196.957 167,196.5C 170.372,197.679 173.705,199.013 177,200.5C 180.911,199.935 181.411,198.101 178.5,195C 176.581,193.066 175.081,193.233 174,195.5C 174.5,191.18 172.667,188.846 168.5,188.5C 168.5,187.5 168.5,186.5 168.5,185.5C 170.799,186.778 173.132,188.111 175.5,189.5C 176.183,189.137 176.85,188.804 177.5,188.5C 178.908,187.939 180.408,187.605 182,187.5C 188.969,188.757 188.802,190.09 181.5,191.5C 181.263,192.791 181.596,193.791 182.5,194.5C 184.167,195.833 185.833,197.167 187.5,198.5C 188.097,199.139 188.93,199.472 190,199.5C 192.478,197.512 195.312,196.512 198.5,196.5C 199.401,200.241 198.068,202.241 194.5,202.5C 194.5,203.833 194.5,205.167 194.5,206.5C 195.5,206.5 196.5,206.5 197.5,206.5C 201.47,209.491 205.47,212.491 209.5,215.5C 214.162,213.169 218.829,210.836 223.5,208.5C 227.118,206.863 230.451,204.863 233.5,202.5C 238.115,199.36 243.115,197.026 248.5,195.5C 248.414,196.496 248.748,197.329 249.5,198C 245.927,200.132 245.927,201.632 249.5,202.5C 223.93,217.292 197.93,231.625 171.5,245.5C 171.5,244.167 171.5,242.833 171.5,241.5C 174.403,239.146 177.736,237.312 181.5,236C 178.151,235.612 174.817,235.779 171.5,236.5C 171.842,235.662 172.508,235.328 173.5,235.5C 178.446,233.197 183.113,230.531 187.5,227.5C 192.391,226.594 195.724,223.927 197.5,219.5C 196.415,217.413 194.749,216.08 192.5,215.5C 190.589,214.925 188.922,213.925 187.5,212.5C 187.427,210.973 188.094,209.973 189.5,209.5C 190.643,209.092 191.643,208.425 192.5,207.5C 187.848,203.279 182.515,202.279 176.5,204.5C 174.205,203.525 172.205,202.192 170.5,200.5C 169.726,199.853 168.726,199.52 167.5,199.5C 164.172,200.683 160.838,201.517 157.5,202C 156.483,200.951 156.316,199.784 157,198.5C 158.145,197.364 159.312,196.364 160.5,195.5C 161.525,195.103 161.692,194.437 161,193.5C 158.521,191.034 156.021,188.701 153.5,186.5C 153.263,185.209 153.596,184.209 154.5,183.5 Z"/></g>
<g><path style="opacity:1" fill="#b1b7ae" d="M 131.5,198.5 C 130.016,200.074 128.349,201.407 126.5,202.5C 123.107,202.464 121.773,203.797 122.5,206.5C 121.833,206.5 121.167,206.5 120.5,206.5C 120.5,205.833 120.167,205.5 119.5,205.5C 119.414,204.504 119.748,203.671 120.5,203C 123.961,200.934 127.627,199.434 131.5,198.5 Z"/></g>
<g><path style="opacity:1" fill="#a2a198" d="M 157.5,193.5 C 158.222,194.551 159.222,195.218 160.5,195.5C 159.312,196.364 158.145,197.364 157,198.5C 156.316,199.784 156.483,200.951 157.5,202C 160.838,201.517 164.172,200.683 167.5,199.5C 168.726,199.52 169.726,199.853 170.5,200.5C 169.5,200.5 168.5,200.5 167.5,200.5C 167.719,201.675 167.386,202.675 166.5,203.5C 163.486,204.859 160.486,206.192 157.5,207.5C 157.611,206.883 157.944,206.383 158.5,206C 156.406,204.745 155.406,202.912 155.5,200.5C 156.182,198.159 156.849,195.826 157.5,193.5 Z"/></g>
<g><path style="opacity:1" fill="#bc9a63" d="M 264.5,197.5 C 264.833,197.5 265.167,197.5 265.5,197.5C 267.5,197.5 269.5,197.5 271.5,197.5C 271.5,199.167 271.5,200.833 271.5,202.5C 271.167,203.5 270.5,204.167 269.5,204.5C 266.312,204.512 263.478,205.512 261,207.5C 253.468,204.235 253.968,202.735 262.5,203C 263.244,201.185 263.911,199.352 264.5,197.5 Z"/></g>
<g><path style="opacity:1" fill="#827778" d="M 232.5,199.5 C 232.586,200.496 232.252,201.329 231.5,202C 232.094,202.464 232.761,202.631 233.5,202.5C 230.451,204.863 227.118,206.863 223.5,208.5C 223.53,207.503 223.03,206.836 222,206.5C 220.862,206.989 219.695,207.322 218.5,207.5C 218.833,206.833 219.167,206.167 219.5,205.5C 223.907,203.649 228.24,201.649 232.5,199.5 Z"/></g>
<g><path style="opacity:1" fill="#949183" d="M 189.5,209.5 C 189.5,208.833 189.167,208.5 188.5,208.5C 189.953,207.175 189.619,206.342 187.5,206C 184.208,205.064 181.208,205.564 178.5,207.5C 180.071,209.415 182.071,210.415 184.5,210.5C 183.833,211.167 183.167,211.833 182.5,212.5C 179.865,211.189 177.531,209.522 175.5,207.5C 177.796,207.196 178.129,206.196 176.5,204.5C 182.515,202.279 187.848,203.279 192.5,207.5C 191.643,208.425 190.643,209.092 189.5,209.5 Z"/></g>
<g><path style="opacity:1" fill="#dde1d1" d="M 188.5,208.5 C 187.29,208.932 186.29,209.599 185.5,210.5C 185.167,210.5 184.833,210.5 184.5,210.5C 182.071,210.415 180.071,209.415 178.5,207.5C 181.208,205.564 184.208,205.064 187.5,206C 189.619,206.342 189.953,207.175 188.5,208.5 Z"/></g>
<g><path style="opacity:1" fill="#e7e0d4" d="M 157.5,193.5 C 156.849,195.826 156.182,198.159 155.5,200.5C 155.406,202.912 156.406,204.745 158.5,206C 157.944,206.383 157.611,206.883 157.5,207.5C 150.484,210.98 143.317,214.314 136,217.5C 133.114,216.454 130.614,214.787 128.5,212.5C 126.194,210.861 124.194,208.861 122.5,206.5C 121.773,203.797 123.107,202.464 126.5,202.5C 126.5,204.833 126.5,207.167 126.5,209.5C 127.552,209.351 128.552,209.517 129.5,210C 132.563,215.767 135.897,215.933 139.5,210.5C 145.2,210.333 149.867,208.166 153.5,204C 153.274,201.731 152.941,199.231 152.5,196.5C 148.788,196.039 145.121,195.373 141.5,194.5C 144.467,192.35 147.8,190.683 151.5,189.5C 153.223,191.218 155.223,192.551 157.5,193.5 Z"/></g>
<g><path style="opacity:1" fill="#b79b70" d="M 264.5,197.5 C 263.911,199.352 263.244,201.185 262.5,203C 253.968,202.735 253.468,204.235 261,207.5C 263.478,205.512 266.312,204.512 269.5,204.5C 267.155,206.514 265.155,208.847 263.5,211.5C 261.313,212.758 258.98,213.758 256.5,214.5C 257.502,212.989 258.169,211.322 258.5,209.5C 257.167,209.5 255.833,209.5 254.5,209.5C 254.5,208.5 254.5,207.5 254.5,206.5C 251.715,206.933 249.381,208.266 247.5,210.5C 243.723,211.399 240.056,212.399 236.5,213.5C 245.5,207.664 254.833,202.331 264.5,197.5 Z"/></g>
<g><path style="opacity:1" fill="#b99b71" d="M 30.5,193.5 C 32.288,193.215 33.9547,193.548 35.5,194.5C 37.2336,197.608 39.9003,199.274 43.5,199.5C 48.4708,204.636 53.6375,209.636 59,214.5C 60.6733,211.999 62.5067,209.666 64.5,207.5C 61.1275,203.685 58.1275,199.685 55.5,195.5C 63.7276,201.459 71.3942,208.125 78.5,215.5C 76.8333,215.5 75.1667,215.5 73.5,215.5C 73.5,214.167 73.5,212.833 73.5,211.5C 71.5,211.5 69.5,211.5 67.5,211.5C 67.6162,214.91 65.9496,216.244 62.5,215.5C 62.5,217.5 62.5,219.5 62.5,221.5C 52.2629,211.713 41.5962,202.38 30.5,193.5 Z"/></g>
<g><path style="opacity:1" fill="#837b77" d="M 120.5,206.5 C 121.167,206.5 121.833,206.5 122.5,206.5C 124.194,208.861 126.194,210.861 128.5,212.5C 127.094,212.973 126.427,213.973 126.5,215.5C 122.854,213.183 119.52,210.516 116.5,207.5C 117.583,207.539 118.583,207.873 119.5,208.5C 120.298,208.043 120.631,207.376 120.5,206.5 Z"/></g>
<g><path style="opacity:1" fill="#696c65" d="M 188.5,208.5 C 189.167,208.5 189.5,208.833 189.5,209.5C 188.094,209.973 187.427,210.973 187.5,212.5C 186.5,212.167 185.833,211.5 185.5,210.5C 186.29,209.599 187.29,208.932 188.5,208.5 Z"/></g>
<g><path style="opacity:1" fill="#2f3631" d="M 199.5,204.5 C 202.865,207.177 206.532,209.511 210.5,211.5C 213.157,210.172 215.824,208.838 218.5,207.5C 219.695,207.322 220.862,206.989 222,206.5C 223.03,206.836 223.53,207.503 223.5,208.5C 218.829,210.836 214.162,213.169 209.5,215.5C 205.47,212.491 201.47,209.491 197.5,206.5C 195.089,203.854 195.755,203.188 199.5,204.5 Z"/></g>
<g><path style="opacity:1" fill="#f3e9d6" d="M 56.5,183.5 C 56.8333,183.5 57.1667,183.5 57.5,183.5C 62.682,183.879 67.682,185.045 72.5,187C 76.0267,187.808 79.3601,187.641 82.5,186.5C 82.5,186.167 82.5,185.833 82.5,185.5C 85.2153,183.877 88.2153,183.21 91.5,183.5C 91.2627,184.791 91.596,185.791 92.5,186.5C 92.8333,187.5 93.5,188.167 94.5,188.5C 101.808,194.804 109.141,201.138 116.5,207.5C 119.52,210.516 122.854,213.183 126.5,215.5C 137.192,224.857 148.192,233.857 159.5,242.5C 161.748,241.207 164.082,240.207 166.5,239.5C 168.848,239.408 170.514,238.408 171.5,236.5C 174.817,235.779 178.151,235.612 181.5,236C 177.736,237.312 174.403,239.146 171.5,241.5C 171.5,242.833 171.5,244.167 171.5,245.5C 161.115,251.173 150.449,256.507 139.5,261.5C 137.734,260.909 136.067,260.076 134.5,259C 130.901,256.048 127.567,252.882 124.5,249.5C 122.774,247.18 122.107,244.513 122.5,241.5C 126.676,242.169 128.009,240.669 126.5,237C 125.167,236.333 123.833,236.333 122.5,237C 119.638,239.412 116.305,240.079 112.5,239C 111.642,237.212 110.642,235.378 109.5,233.5C 106.757,233.072 104.424,231.905 102.5,230C 102.833,229.667 103.167,229.333 103.5,229C 101.38,225.841 98.38,224.174 94.5,224C 93.1667,223 93.1667,222 94.5,221C 92.4817,220.495 90.4817,219.995 88.5,219.5C 87.0401,217.537 85.3734,215.704 83.5,214C 83.8333,213.667 84.1667,213.333 84.5,213C 81.9398,212.616 79.6064,211.783 77.5,210.5C 69.5709,204.908 62.2376,198.574 55.5,191.5C 54.3747,189.871 53.0414,188.371 51.5,187C 53.4308,186.098 55.0975,184.931 56.5,183.5 Z"/></g>
<g><path style="opacity:1" fill="#f1e7d5" d="M 175.5,207.5 C 177.531,209.522 179.865,211.189 182.5,212.5C 186.127,214.794 189.461,217.46 192.5,220.5C 190.45,222.547 188.117,224.214 185.5,225.5C 181.18,227.475 176.847,229.475 172.5,231.5C 171.702,231.957 171.369,232.624 171.5,233.5C 168.023,235.667 164.19,237 160,237.5C 155.689,235.925 152.189,233.258 149.5,229.5C 147.062,227.001 145.395,224.001 144.5,220.5C 145.725,218.173 147.725,217.006 150.5,217C 151.252,216.329 151.586,215.496 151.5,214.5C 157.104,211.361 162.771,208.194 168.5,205C 171.478,204.167 173.811,205 175.5,207.5 Z"/></g>
<g><path style="opacity:1" fill="#cfbfbb" d="M 77.5,210.5 C 79.6064,211.783 81.9398,212.616 84.5,213C 84.1667,213.333 83.8333,213.667 83.5,214C 85.3734,215.704 87.0401,217.537 88.5,219.5C 84.5373,216.871 80.8706,213.871 77.5,210.5 Z"/></g>
<g><path style="opacity:1" fill="#989b90" d="M 192.5,215.5 C 194.749,216.08 196.415,217.413 197.5,219.5C 195.251,218.92 193.585,217.587 192.5,215.5 Z"/></g>
<g><path style="opacity:1" fill="#f7f1e2" d="M 263.5,211.5 C 260.349,217.046 255.683,220.546 249.5,222C 248.833,223 248.167,224 247.5,225C 244.518,225.498 241.518,225.665 238.5,225.5C 244.505,221.831 250.505,218.165 256.5,214.5C 258.98,213.758 261.313,212.758 263.5,211.5 Z"/></g>
<g><path style="opacity:1" fill="#323837" d="M 170.5,200.5 C 172.205,202.192 174.205,203.525 176.5,204.5C 178.129,206.196 177.796,207.196 175.5,207.5C 173.811,205 171.478,204.167 168.5,205C 162.771,208.194 157.104,211.361 151.5,214.5C 146.648,215.263 142.315,217.097 138.5,220C 141.419,223.97 145.085,227.136 149.5,229.5C 152.189,233.258 155.689,235.925 160,237.5C 164.19,237 168.023,235.667 171.5,233.5C 172.833,233.5 173.5,234.167 173.5,235.5C 172.508,235.328 171.842,235.662 171.5,236.5C 169.326,236.75 167.659,237.75 166.5,239.5C 164.082,240.207 161.748,241.207 159.5,242.5C 148.192,233.857 137.192,224.857 126.5,215.5C 126.427,213.973 127.094,212.973 128.5,212.5C 130.614,214.787 133.114,216.454 136,217.5C 143.317,214.314 150.484,210.98 157.5,207.5C 160.486,206.192 163.486,204.859 166.5,203.5C 167.386,202.675 167.719,201.675 167.5,200.5C 168.5,200.5 169.5,200.5 170.5,200.5 Z"/></g>
<g><path style="opacity:1" fill="#d1d3ca" d="M 151.5,214.5 C 151.586,215.496 151.252,216.329 150.5,217C 147.725,217.006 145.725,218.173 144.5,220.5C 145.395,224.001 147.062,227.001 149.5,229.5C 145.085,227.136 141.419,223.97 138.5,220C 142.315,217.097 146.648,215.263 151.5,214.5 Z"/></g>
<g><path style="opacity:1" fill="#383c3a" d="M 184.5,210.5 C 184.833,210.5 185.167,210.5 185.5,210.5C 185.833,211.5 186.5,212.167 187.5,212.5C 188.922,213.925 190.589,214.925 192.5,215.5C 193.585,217.587 195.251,218.92 197.5,219.5C 195.724,223.927 192.391,226.594 187.5,227.5C 186.167,227.5 185.5,226.833 185.5,225.5C 188.117,224.214 190.45,222.547 192.5,220.5C 189.461,217.46 186.127,214.794 182.5,212.5C 183.167,211.833 183.833,211.167 184.5,210.5 Z"/></g>
<g><path style="opacity:1" fill="#a99167" d="M 236.5,213.5 C 232.112,219.699 226.112,223.366 218.5,224.5C 216.464,226.984 213.798,227.984 210.5,227.5C 217.606,223.619 224.606,219.452 231.5,215C 233.154,214.392 234.821,213.892 236.5,213.5 Z"/></g>
<g><path style="opacity:1" fill="#c0a077" d="M 256.5,214.5 C 250.505,218.165 244.505,221.831 238.5,225.5C 235.246,225.794 232.579,227.127 230.5,229.5C 224.147,231.06 218.147,233.393 212.5,236.5C 212.908,235.357 213.575,234.357 214.5,233.5C 218.77,232.203 222.104,229.703 224.5,226C 228.914,223.91 233.581,223.076 238.5,223.5C 238.5,222.5 238.5,221.5 238.5,220.5C 240.833,220.5 243.167,220.5 245.5,220.5C 245.297,218.61 245.963,217.11 247.5,216C 249.536,215.546 251.37,214.713 253,213.5C 254.138,213.989 255.305,214.322 256.5,214.5 Z"/></g>
<g><path style="opacity:1" fill="#c19b66" d="M 78.5,215.5 C 79.252,217.1 80.252,218.6 81.5,220C 81.1667,220.333 80.8333,220.667 80.5,221C 84.1276,223.511 87.7943,225.677 91.5,227.5C 91.2865,229.144 91.6198,230.644 92.5,232C 91.2567,233.154 90.2567,234.488 89.5,236C 92.3176,236.84 94.4843,236.006 96,233.5C 98.3255,236.011 101.159,237.344 104.5,237.5C 104.833,237.5 105.167,237.5 105.5,237.5C 106.828,240.874 105.828,243.54 102.5,245.5C 99.108,242.481 95.108,240.981 90.5,241C 86.8982,235.635 81.8982,232.468 75.5,231.5C 74.8333,230.5 74.1667,229.5 73.5,228.5C 69.7932,226.106 66.1265,223.773 62.5,221.5C 62.5,219.5 62.5,217.5 62.5,215.5C 65.9496,216.244 67.6162,214.91 67.5,211.5C 69.5,211.5 71.5,211.5 73.5,211.5C 73.5,212.833 73.5,214.167 73.5,215.5C 75.1667,215.5 76.8333,215.5 78.5,215.5 Z"/></g>
<g><path style="opacity:1" fill="#bb9f78" d="M 62.5,221.5 C 66.1265,223.773 69.7932,226.106 73.5,228.5C 74.1667,229.5 74.8333,230.5 75.5,231.5C 81.8982,232.468 86.8982,235.635 90.5,241C 95.108,240.981 99.108,242.481 102.5,245.5C 105.828,243.54 106.828,240.874 105.5,237.5C 110.5,241.5 115.5,245.5 120.5,249.5C 121.167,250.167 121.833,250.833 122.5,251.5C 118.821,251.276 115.154,250.942 111.5,250.5C 111.167,250.5 110.833,250.5 110.5,250.5C 105.507,248.507 100.174,246.84 94.5,245.5C 89.0344,243.434 83.701,240.767 78.5,237.5C 72.0846,233.085 66.7512,227.751 62.5,221.5 Z"/></g>
<g><path style="opacity:1" fill="#797373" d="M 185.5,225.5 C 185.5,226.833 186.167,227.5 187.5,227.5C 183.113,230.531 178.446,233.197 173.5,235.5C 173.5,234.167 172.833,233.5 171.5,233.5C 171.369,232.624 171.702,231.957 172.5,231.5C 176.847,229.475 181.18,227.475 185.5,225.5 Z"/></g>
<g><path style="opacity:1" fill="#b3946d" d="M 78.5,215.5 C 84.9569,220.117 91.2903,224.951 97.5,230C 100.039,232.37 102.372,234.87 104.5,237.5C 101.159,237.344 98.3255,236.011 96,233.5C 94.4843,236.006 92.3176,236.84 89.5,236C 90.2567,234.488 91.2567,233.154 92.5,232C 91.6198,230.644 91.2865,229.144 91.5,227.5C 87.7943,225.677 84.1276,223.511 80.5,221C 80.8333,220.667 81.1667,220.333 81.5,220C 80.252,218.6 79.252,217.1 78.5,215.5 Z"/></g>
<g><path style="opacity:1" fill="#554539" d="M 47.5,187.5 C 48.1667,187.5 48.8333,187.5 49.5,187.5C 51.2459,189.252 53.2459,190.585 55.5,191.5C 62.2376,198.574 69.5709,204.908 77.5,210.5C 80.8706,213.871 84.5373,216.871 88.5,219.5C 99.8333,229.5 111.167,239.5 122.5,249.5C 121.833,249.5 121.167,249.5 120.5,249.5C 115.5,245.5 110.5,241.5 105.5,237.5C 105.167,237.5 104.833,237.5 104.5,237.5C 102.372,234.87 100.039,232.37 97.5,230C 91.2903,224.951 84.9569,220.117 78.5,215.5C 71.3942,208.125 63.7276,201.459 55.5,195.5C 53.1395,192.473 50.4729,189.806 47.5,187.5 Z"/></g>
<g><path style="opacity:1" fill="#e7dcd4" d="M 88.5,219.5 C 90.4817,219.995 92.4817,220.495 94.5,221C 93.1667,222 93.1667,223 94.5,224C 98.38,224.174 101.38,225.841 103.5,229C 103.167,229.333 102.833,229.667 102.5,230C 104.424,231.905 106.757,233.072 109.5,233.5C 110.642,235.378 111.642,237.212 112.5,239C 116.305,240.079 119.638,239.412 122.5,237C 123.833,236.333 125.167,236.333 126.5,237C 128.009,240.669 126.676,242.169 122.5,241.5C 122.107,244.513 122.774,247.18 124.5,249.5C 123.833,249.5 123.167,249.5 122.5,249.5C 111.167,239.5 99.8333,229.5 88.5,219.5 Z"/></g>
<g><path style="opacity:1" fill="#c19c65" d="M 256.5,214.5 C 255.305,214.322 254.138,213.989 253,213.5C 251.37,214.713 249.536,215.546 247.5,216C 245.963,217.11 245.297,218.61 245.5,220.5C 243.167,220.5 240.833,220.5 238.5,220.5C 238.5,221.5 238.5,222.5 238.5,223.5C 233.581,223.076 228.914,223.91 224.5,226C 222.104,229.703 218.77,232.203 214.5,233.5C 213.575,234.357 212.908,235.357 212.5,236.5C 210.033,236.755 208.033,237.755 206.5,239.5C 205.5,239.5 204.5,239.5 203.5,239.5C 201.712,239.785 200.045,239.452 198.5,238.5C 198.667,238.167 198.833,237.833 199,237.5C 203.025,234.25 206.858,230.917 210.5,227.5C 213.798,227.984 216.464,226.984 218.5,224.5C 226.112,223.366 232.112,219.699 236.5,213.5C 240.056,212.399 243.723,211.399 247.5,210.5C 249.381,208.266 251.715,206.933 254.5,206.5C 254.5,207.5 254.5,208.5 254.5,209.5C 255.833,209.5 257.167,209.5 258.5,209.5C 258.169,211.322 257.502,212.989 256.5,214.5 Z"/></g>
<g><path style="opacity:1" fill="#aea9a4" d="M 171.5,236.5 C 170.514,238.408 168.848,239.408 166.5,239.5C 167.659,237.75 169.326,236.75 171.5,236.5 Z"/></g>
<g><path style="opacity:1" fill="#e9e0d5" d="M 230.5,229.5 C 227.188,231.725 223.522,233.392 219.5,234.5C 218.713,235.242 218.047,236.075 217.5,237C 213.649,237.414 209.983,238.248 206.5,239.5C 208.033,237.755 210.033,236.755 212.5,236.5C 218.147,233.393 224.147,231.06 230.5,229.5 Z"/></g>
<g><path style="opacity:1" fill="#b79871" d="M 210.5,227.5 C 206.858,230.917 203.025,234.25 199,237.5C 198.833,237.833 198.667,238.167 198.5,238.5C 200.045,239.452 201.712,239.785 203.5,239.5C 201.9,240.644 200.233,241.811 198.5,243C 195.478,243.098 192.811,243.932 190.5,245.5C 181.728,248.048 173.062,250.714 164.5,253.5C 163.833,253.5 163.167,253.5 162.5,253.5C 164.657,251.588 166.991,249.921 169.5,248.5C 183.213,241.809 196.88,234.809 210.5,227.5 Z"/></g>
<g><path style="opacity:1" fill="#f3ecdb" d="M 78.5,237.5 C 83.701,240.767 89.0344,243.434 94.5,245.5C 89.4337,244.309 84.4337,242.809 79.5,241C 78.6634,239.989 78.33,238.822 78.5,237.5 Z"/></g>
<g><path style="opacity:1" fill="#efe8d7" d="M 94.5,245.5 C 100.174,246.84 105.507,248.507 110.5,250.5C 105.203,249.725 99.8699,249.392 94.5,249.5C 94.5,248.167 94.5,246.833 94.5,245.5 Z"/></g>
<g><path style="opacity:1" fill="#e0d6cb" d="M 111.5,250.5 C 115.154,250.942 118.821,251.276 122.5,251.5C 123.5,251.833 124.167,252.5 124.5,253.5C 119.688,254.035 115.355,253.035 111.5,250.5 Z"/></g>
<g><path style="opacity:1" fill="#e9e4cb" d="M 190.5,245.5 C 185.312,248.075 179.978,250.575 174.5,253C 171.183,253.498 167.85,253.665 164.5,253.5C 173.062,250.714 181.728,248.048 190.5,245.5 Z"/></g>
<g><path style="opacity:1" fill="#53524e" d="M 171.5,245.5 C 170.833,246.5 170.167,247.5 169.5,248.5C 166.991,249.921 164.657,251.588 162.5,253.5C 154.938,257.356 147.272,261.022 139.5,264.5C 134.226,261.229 129.226,257.562 124.5,253.5C 124.167,252.5 123.5,251.833 122.5,251.5C 121.833,250.833 121.167,250.167 120.5,249.5C 121.167,249.5 121.833,249.5 122.5,249.5C 123.167,249.5 123.833,249.5 124.5,249.5C 127.567,252.882 130.901,256.048 134.5,259C 136.067,260.076 137.734,260.909 139.5,261.5C 150.449,256.507 161.115,251.173 171.5,245.5 Z"/></g>
</svg>
